<svg width="150" height="59" viewBox="0 0 150 59" fill="none" xmlns="http://www.w3.org/2000/svg">
<path d="M105.694 99.7373C105.694 99.5719 105.86 99.3238 106.108 99.2411C106.108 99.1584 106.025 98.9929 105.943 98.8275C105.115 98.9929 105.943 99.4892 105.529 99.7373C105.529 99.7373 105.612 99.7373 105.694 99.7373ZM101.807 100.73C101.973 100.647 102.138 100.647 102.221 100.647L102.056 100.316C101.807 100.399 101.725 100.482 101.807 100.73ZM12.8197 76.2498C13.564 76.3325 12.737 76.9941 12.8197 76.2498ZM6.03807 62.4385C6.36888 62.3558 6.28618 62.6039 6.45159 62.6866C6.53429 62.6039 6.53429 62.5212 6.53429 62.4385C6.36888 62.3558 6.20348 62.1904 6.03807 62.025C6.03807 62.1904 6.03807 62.2731 6.03807 62.4385ZM0.331612 46.8905C0.248909 46.8905 0.166207 46.9732 0.166207 47.0559C0.248909 46.9732 0.331612 46.9732 0.331612 46.8905ZM10.2559 0.659859C10.1732 0.742561 10.0905 0.825261 10.0078 0.990665C10.0905 0.907963 10.1732 0.825264 10.3386 0.825264C10.3386 0.742562 10.2559 0.742561 10.2559 0.659859ZM108.589 -24.6471C108.589 -24.6471 108.506 -24.7298 108.424 -24.8125C108.424 -24.8125 108.424 -24.7298 108.424 -24.6471H108.589ZM118.265 -20.5119C118.182 -20.4292 118.1 -20.3465 118.017 -20.2638C118.1 -20.2638 118.1 -20.1811 118.1 -20.1811C118.265 -20.0157 118.431 -20.0157 118.596 -20.0984C118.513 -20.1811 118.513 -20.3465 118.431 -20.4292L118.265 -20.5119ZM151.181 57.2283C151.76 57.0629 151.925 56.5666 152.339 56.3185C152.256 55.2434 151.925 54.3337 152.917 53.7548C152.587 53.5067 152.587 52.6796 153.166 52.5969C152.835 52.5142 152.504 52.5142 152.09 52.5969C151.925 53.0931 151.677 53.5894 151.346 54.0029C151.594 54.9126 151.346 56.5666 150.684 57.1456C150.933 57.5591 150.767 57.9726 150.933 58.3034C151.346 58.0553 151.346 57.7245 151.181 57.2283ZM144.895 68.6412C144.647 68.2277 144.73 68.3931 144.565 68.0623C145.226 67.7315 145.722 67.0698 145.722 66.3255C145.143 66.9871 144.151 67.318 143.82 68.3104H143.407C143.407 68.8066 143.159 69.2201 142.828 69.5509C142.91 69.5509 143.076 69.5509 143.159 69.5509C143.738 69.3028 144.316 68.972 144.647 68.4758C144.647 68.6412 144.647 68.7239 144.895 68.6412ZM122.566 91.5497C122.4 91.2189 122.979 91.1362 122.897 90.8054C122.648 90.9708 122.483 91.0535 122.318 91.2189C122.4 91.467 122.483 91.6324 122.566 91.5497ZM118.761 92.9557C119.34 92.7076 119.919 92.3768 120.333 92.046C120.167 92.046 120.002 91.9632 119.919 91.8805C119.837 92.2941 119.258 92.3768 118.761 92.5422C118.761 92.7076 118.761 92.7903 118.761 92.9557ZM114.957 95.5195C115.04 95.7676 114.874 95.8503 115.04 96.0157C115.371 95.933 115.371 95.4368 114.957 95.5195ZM113.303 96.1811C113.22 96.5119 114.047 96.3465 113.717 96.0984L113.303 96.1811ZM94.695 101.888C94.8604 101.805 95.0258 101.805 94.8604 101.557C94.695 101.639 94.5296 101.639 94.5296 101.805C94.6123 101.805 94.695 101.805 94.695 101.888ZM70.2978 103.376C70.2151 103.79 70.9594 103.542 70.7113 103.293L70.2978 103.376ZM69.8843 103.211C69.6362 103.128 69.3054 103.045 69.0573 102.797C67.8994 102.797 66.907 102.466 65.9146 101.888C66.08 102.715 65.3357 102.88 64.8394 103.542C65.9146 103.707 66.8243 103.211 67.6513 104.038C67.8994 103.79 67.4032 103.459 67.8994 103.376C68.3956 103.293 68.9746 103.376 69.3054 103.79C69.3881 103.79 69.5535 103.707 69.6362 103.707C69.8016 103.707 69.967 103.624 70.0497 103.542C69.967 103.459 69.967 103.293 69.8843 103.211ZM23.6537 78.4828C23.6537 78.3174 23.571 78.2347 23.6537 78.152C23.3229 78.2347 22.9094 78.2347 22.4131 78.152C22.165 77.573 21.6688 77.1595 21.0072 76.9114C21.1726 76.3325 20.2629 76.0017 19.8494 75.5882C19.7667 75.4228 19.9321 75.3401 19.7667 75.092C19.1877 75.2574 19.3532 74.7612 19.105 74.5131C18.8569 74.2649 18.4434 74.1823 18.278 73.9341C18.1126 73.7687 18.1126 73.5206 18.0299 73.3552C17.7818 73.0244 17.3683 72.859 17.2856 72.6109C17.2029 72.5282 17.6991 72.6109 17.2029 72.5282C17.0375 72.4455 16.7067 72.032 16.4586 71.5358C16.4586 71.7012 16.4586 71.8666 16.5413 71.9493C16.1278 71.9493 16.1278 72.3628 15.4661 72.1974C15.4661 72.2801 15.4661 72.4455 15.3834 72.5282C15.9624 73.6033 16.8721 74.4304 17.7818 75.1747L18.1953 76.1671C18.8569 76.5806 19.1877 77.4903 19.7667 78.3174C19.9321 78.4828 20.3456 78.0693 20.511 78.3174C20.5937 78.6482 20.6764 79.0617 20.5937 79.3925C20.8418 79.3925 20.9245 79.5579 21.0072 79.806C21.8342 79.6406 22.165 80.4676 22.5785 81.1292C23.0748 80.3022 23.4056 79.3925 23.6537 78.4828ZM13.564 68.3931C13.8121 68.7239 13.9775 69.1374 14.0602 69.6336C14.5564 69.3855 14.1429 68.8893 14.1429 68.3931C13.6467 67.8969 13.3159 67.2352 13.1505 66.4909C12.6543 66.739 12.737 65.9947 12.4062 65.9947C12.8197 67.0698 12.4889 68.4758 13.2332 69.0547C13.564 68.7239 12.737 68.4758 13.564 68.3931ZM10.5867 64.0926L11.0829 64.0099C11.0002 63.9272 11.0002 63.8445 10.9175 63.7617L10.504 63.8445L10.5867 64.0926ZM4.05322 15.2982H3.97052V15.0501H3.72241V15.2982H4.05322ZM4.79754 36.3873L4.30132 36.5527L4.38403 36.8008L4.88024 36.6354L4.79754 36.3873ZM3.557 40.9359C3.557 41.0186 3.4743 41.1013 3.557 41.184C3.63971 41.5975 3.4743 42.011 3.88781 42.1764C3.80511 42.2591 3.63971 42.3418 3.557 42.4245C3.72241 43.1689 4.21862 43.8305 4.88024 44.244C5.04565 44.0786 5.21105 43.9959 5.54186 44.244C5.54186 44.1613 5.54186 43.9959 5.54186 43.9132C5.29375 43.2516 4.88024 42.3418 5.45916 41.7629C4.79754 41.7629 5.04565 41.0186 5.04565 40.6878C4.71484 40.6051 3.97052 40.9359 3.557 40.9359ZM6.78239 51.3564C7.0305 51.2737 7.19591 51.2737 7.0305 51.0256L6.78239 51.1083C6.78239 51.191 6.78239 51.2737 6.78239 51.3564ZM19.3532 -3.06175C19.5186 -1.98662 18.1126 -2.15202 17.9472 -1.2423C20.1802 -1.4904 20.4283 -3.55796 21.9169 -4.63309C22.0823 -4.63309 22.165 -4.63309 22.3304 -4.63309C22.0823 -4.7158 21.9996 -4.8812 21.9996 -5.12931C21.6688 -4.9639 21.5034 -5.0466 21.4207 -5.12931C21.2553 -4.8812 21.0072 -4.7158 20.6764 -4.63309C20.5937 -4.13688 20.4283 -4.05418 20.4283 -3.64067C19.8494 -3.64067 19.684 -3.30986 19.3532 -3.06175ZM60.5389 -23.4892C60.6216 -24.8125 58.9676 -23.4065 60.5389 -23.4892ZM77.1621 -26.7973C77.1621 -26.7146 77.1621 -26.6319 77.2448 -26.5492C77.4102 -26.5492 77.4929 -26.7146 77.4929 -26.88C77.4102 -26.88 77.2448 -26.7973 77.1621 -26.7973ZM80.4702 -27.6243C80.1394 -27.5416 79.8913 -27.3762 80.0567 -27.1281C80.3048 -27.2108 80.3048 -27.3762 80.4702 -27.6243ZM82.1242 -27.1281C82.2069 -27.0454 82.2896 -26.88 82.6204 -26.88C83.1994 -26.88 83.861 -26.9627 84.5226 -26.9627C84.1091 -27.4589 84.4399 -27.8725 84.5226 -28.3687C84.2745 -28.1206 83.9437 -27.9552 83.5302 -27.9552C83.2821 -28.286 84.1918 -28.0379 83.9437 -28.3687L82.9513 -28.0379C83.6129 -27.3762 82.455 -27.5416 82.1242 -27.1281ZM96.7626 -20.8428C96.7626 -20.7601 96.7626 -20.6773 96.8453 -20.5946L97.0934 -20.6774L97.0107 -20.9255L96.7626 -20.8428ZM111.07 -22.5795C110.987 -22.6622 110.822 -22.7449 110.739 -22.8276C110.739 -22.7449 110.657 -22.5795 110.657 -22.4968C110.822 -22.4968 110.987 -22.4968 111.07 -22.5795ZM150.271 17.6965C149.857 17.7792 150.023 17.2003 149.527 17.2003C149.444 17.3657 149.361 17.5311 149.279 17.6965C149.527 17.8619 150.436 17.8619 150.271 17.6965ZM149.857 20.0122C149.279 20.4257 149.857 21.4181 150.519 21.4181C150.354 20.5084 150.106 19.6814 149.692 18.8544C149.527 19.1025 149.444 19.3506 149.279 19.5987C149.361 19.8468 149.692 19.8468 149.857 20.0122ZM149.692 18.1101C149.692 18.1928 149.361 18.6063 149.692 18.6063C149.692 18.6063 150.023 18.1101 149.692 18.1101ZM147.211 16.456H147.459V16.2079H147.211V16.456ZM86.4248 99.0757C86.0939 99.3238 85.6804 99.4892 85.1842 99.5719C85.4323 99.6546 85.1015 99.82 85.0188 100.068C85.2669 99.9854 85.5977 99.9854 85.8458 99.9854C86.0112 99.7373 86.2593 99.4892 86.5075 99.4065L86.4248 99.0757ZM74.0194 100.068C75.6734 99.9854 77.4102 99.5719 79.1469 99.7373C79.3124 99.6546 79.147 99.2411 79.3951 99.2411C80.7183 99.4065 81.2145 98.8275 82.3723 98.7448C82.3723 98.6621 82.3723 98.6621 82.2896 98.5794C80.7183 98.8275 79.2297 98.993 77.6583 99.3238C77.4929 99.4065 77.6583 99.5719 77.4929 99.6546C76.3351 98.993 75.508 100.068 74.2675 99.7373C74.2675 99.9027 74.1848 99.9854 74.0194 100.068ZM28.5331 77.0768C28.6985 77.0768 28.6985 76.9941 28.6985 76.9114C28.7812 76.8287 28.6985 76.8287 28.6985 76.746H28.6158C28.5331 76.9114 28.4504 76.9941 28.3677 77.0768C28.4504 77.0768 28.4504 77.0768 28.5331 77.0768ZM10.1732 61.8596C10.1732 61.6942 10.1732 61.6115 10.1732 61.4461C10.0905 61.4461 10.0078 61.4461 9.92508 61.6115C9.92508 61.7769 10.0905 61.8596 10.1732 61.8596ZM35.232 -14.6401C35.1493 -14.7228 34.9012 -14.8055 34.9012 -14.5574C34.9839 -14.4747 35.1493 -14.392 35.3147 -14.392C35.3147 -14.4747 35.232 -14.5574 35.232 -14.6401ZM35.3147 -15.5498V-15.7152H34.9012C34.7358 -15.3844 34.6531 -15.0536 35.1493 -15.0536C35.1493 -15.219 35.232 -15.3844 35.3147 -15.5498ZM35.9763 -13.7304C34.9839 -13.6477 34.0742 -13.7304 33.3298 -13.8958C33.2471 -13.3168 33.4126 -12.7379 33.578 -12.2417C33.1644 -11.9109 32.8336 -11.4974 32.5028 -11.0839C32.5028 -11.0012 32.5028 -11.0012 32.5028 -11.0012C32.5855 -10.9185 32.5855 -10.9185 32.6682 -10.9185C33.4126 -11.0012 34.405 -11.2493 35.4801 -11.332C35.8109 -11.7455 36.2244 -12.2417 36.6379 -12.7379C36.8861 -13.0687 37.6304 -13.3995 37.7958 -13.8131C37.3823 -13.8131 36.8033 -13.7304 36.3898 -13.7304C36.3071 -13.7304 36.3071 -13.6476 36.3071 -13.6476C36.1417 -13.6476 36.059 -13.7304 35.9763 -13.7304ZM45.1563 -13.8131C45.239 -13.8131 45.239 -13.8958 45.3217 -13.8958C45.239 -13.8958 45.1563 -13.8958 45.1563 -13.8131ZM147.955 45.8153C148.203 45.7326 148.286 45.4845 148.203 45.2364C148.038 45.3191 147.955 45.5672 147.955 45.8153ZM118.017 77.3249C118.017 77.2422 117.934 77.2422 117.934 77.1595C117.852 77.2422 117.686 77.3249 117.604 77.4076C117.769 77.4903 117.852 77.4076 118.017 77.3249ZM114.461 84.1065C114.213 83.693 115.04 83.7757 114.792 83.5276C114.213 83.6103 114.378 83.7757 113.799 83.7757C113.965 84.1065 114.13 84.2719 114.461 84.1065ZM113.634 83.4449C113.882 83.2795 114.213 83.1968 114.047 82.9487C113.799 82.9487 113.468 83.0314 113.634 83.4449ZM102.386 91.1362C101.725 91.3016 100.98 91.5497 100.484 91.7978C100.898 91.8805 100.98 92.1287 101.063 92.5422C101.228 92.3768 101.477 92.2114 101.311 91.8805C101.89 91.8805 101.973 91.3843 102.386 91.1362ZM29.1947 74.2649C29.3601 74.0995 29.6082 74.0995 29.8563 74.1823C29.6909 73.8514 29.5255 73.6033 29.3601 73.2725C28.8639 73.3552 28.6985 73.686 28.5331 74.0995C28.7812 74.0995 29.0293 74.1822 29.1947 74.2649ZM25.8039 68.7239L25.7212 68.4758L25.225 68.6412V68.7239L25.3077 68.8893L25.8039 68.7239ZM7.60942 28.117C7.60942 28.2824 7.69212 28.3651 7.85753 28.5306C8.10563 27.9516 8.43644 27.5381 8.84995 27.0419C8.76725 26.7111 8.76725 26.3803 8.60185 26.0495C7.69212 26.5457 8.35374 27.8689 7.60942 28.117ZM23.8191 -4.55039C23.7364 -4.55039 23.6537 -4.55039 23.571 -4.55039V-4.21958H23.8191V-4.55039ZM48.7952 -8.85091C48.8779 -8.68551 49.126 -8.5201 49.4568 -8.4374C49.7049 -8.60281 49.953 -8.76821 50.2011 -8.93361C49.7876 -8.93361 49.2914 -8.85091 48.7952 -8.85091ZM86.6729 -15.7979C86.6729 -15.9633 86.8383 -15.9633 86.8383 -16.2114H86.5902C86.5902 -16.046 86.4248 -16.046 86.4248 -15.8806L86.5075 -15.7979H86.6729ZM106.604 -16.6249C106.439 -16.5422 106.191 -16.5422 105.943 -16.5422C106.108 -16.4595 106.273 -16.3768 106.521 -16.2941C106.604 -16.2941 106.687 -16.2941 106.77 -16.2941L106.604 -16.6249ZM108.175 -11.9109C108.01 -11.5801 108.258 -11.7455 108.175 -11.4147C108.754 -11.332 108.754 -11.9936 108.175 -11.9109ZM113.799 -8.60281C113.634 -8.3547 113.634 -8.272 113.882 -8.18929C113.882 -8.3547 113.965 -8.5201 114.047 -8.60281H113.799ZM131.58 19.0198C131.663 19.1025 131.663 19.1025 131.58 19.0198C131.911 18.7717 132.325 18.5236 132.655 18.1928C132.407 17.8619 132.573 17.6965 132.738 17.4484C132.49 17.6138 132.159 17.6138 131.911 17.6965C132.159 18.2755 131.746 18.6063 131.58 19.0198ZM140.843 46.7251C140.512 46.5597 140.678 46.7251 140.347 46.8905C140.347 47.3867 141.091 47.1386 140.843 46.7251ZM139.189 52.6796L139.106 52.5969C139.023 52.5142 138.941 52.5142 138.775 52.5142C138.775 52.5142 138.775 52.5969 138.775 52.6796C138.858 52.5969 139.023 52.5969 139.189 52.6796ZM115.453 76.4152C115.95 75.919 116.446 75.3401 116.942 74.9266C116.777 74.9266 116.777 74.8439 116.777 74.6785C117.19 74.5131 117.604 74.265 118.017 73.9341C117.769 73.9341 117.604 73.9341 117.355 73.9341C116.942 74.3477 116.363 74.5958 115.867 74.5958C115.867 74.5958 115.95 74.5958 115.95 74.6785C115.288 75.092 115.205 75.7536 114.874 76.2498C115.122 76.2498 115.288 76.3325 115.453 76.4152ZM89.2366 90.8881C88.9885 91.1362 89.7328 91.2189 89.6501 91.0535C89.5674 90.9708 89.5674 90.8881 89.2366 90.8881ZM85.0188 91.2189C84.9361 90.8054 85.3496 90.8881 85.5977 90.7227C85.1015 90.64 84.4399 90.8054 84.0264 91.0535C84.1091 91.1362 84.1918 91.2189 84.1918 91.3016C84.5226 91.1362 84.7707 91.1362 85.0188 91.2189ZM81.0491 92.5422C81.2145 92.4595 81.4626 92.3768 81.5453 92.2941C81.2972 92.046 81.0491 91.7979 80.8837 91.467C80.5529 91.6324 80.3875 92.1287 79.8086 91.8805C79.8086 92.2941 80.0567 92.5422 80.3875 92.7076C80.6356 92.6249 80.801 92.6249 81.0491 92.5422ZM79.2297 95.7676L79.5605 95.6022V95.5195C79.3123 95.2713 79.0642 95.6022 79.2297 95.7676ZM61.9449 96.0984C62.0276 96.6773 61.1178 96.2638 61.9449 96.0984ZM54.5016 89.3168C54.6671 89.1514 54.2535 88.5724 54.2535 88.9033L54.5016 89.3168ZM10.0905 42.1764C10.0905 42.2591 10.0905 42.3418 10.0905 42.4245C10.1732 42.6726 10.3386 42.7554 10.6694 42.6727C10.7521 42.2591 10.504 42.0937 10.0905 42.1764ZM11.5791 19.6814L11.6618 19.9295L11.9099 19.8468L11.8272 19.5987L11.5791 19.6814ZM12.158 36.3873C12.158 36.8008 12.158 37.1316 12.0753 37.4624C12.737 37.4624 12.4889 36.7181 12.158 36.3873ZM10.9175 51.4391C10.9175 51.5218 10.9175 51.5218 10.9175 51.6045C10.9175 51.6872 10.9175 51.7699 11.0002 51.8526C11.0002 51.6872 10.9175 51.6045 10.9175 51.4391ZM25.5558 -1.90392C25.8039 -1.90392 25.6385 -1.82121 25.5558 -1.57311C25.6385 -1.4904 25.8039 -1.49041 25.8866 -1.49041C25.8866 -1.82122 25.6385 -2.23473 25.5558 -1.90392ZM59.2984 -7.94119C59.2157 -8.272 58.9676 -8.76821 59.0503 -8.93361C58.6368 -8.93361 58.7195 -8.60281 58.306 -8.60281C57.8924 -8.93362 57.727 -8.76821 57.0654 -8.5201C57.0654 -8.76821 56.9 -8.68551 56.7346 -8.76821C56.8173 -8.4374 56.8173 -8.02389 56.7346 -7.69308L56.8173 -7.61038C57.727 -8.272 58.1405 -7.52768 59.2984 -7.94119ZM121.242 9.1782C121.739 9.2609 121.987 8.84739 121.491 8.76469C121.491 9.01279 121.325 9.0128 121.242 9.1782ZM135.881 27.7862C135.55 27.7035 135.302 27.5381 135.136 27.5381C135.302 27.2073 135.715 27.0419 135.715 26.7111C135.136 26.7938 135.054 27.3727 134.475 27.5381C134.64 27.7862 134.64 28.117 134.475 28.4478C134.723 28.8614 135.054 29.2749 135.467 29.6057C135.633 29.4403 135.633 29.1922 135.963 29.1922C135.715 28.7787 135.715 28.2824 135.881 27.7862ZM94.695 91.1362C94.6123 90.9708 94.5296 90.7227 94.2815 90.8881C94.3642 91.0535 94.5296 91.1362 94.695 91.1362ZM70.6286 94.6924C70.4632 94.3616 70.2151 94.1135 69.967 93.9481C69.7189 94.0308 69.3881 94.0308 69.14 94.0308C68.9746 94.527 69.5535 94.8578 69.8016 95.1886C69.6362 94.4443 70.0497 94.6097 70.6286 94.6924ZM63.6816 91.2189C64.4259 91.3016 63.5989 91.9632 63.6816 91.2189ZM16.7067 44.3267C17.0375 44.3267 17.1202 44.1613 16.9548 43.8305C16.7067 43.9132 16.624 44.0786 16.7067 44.3267ZM17.6991 34.1543C17.8645 34.6505 17.7818 34.8986 17.2856 35.064C17.0375 35.4775 17.0375 36.0565 17.1202 36.5527C17.5337 36.3873 18.1126 36.1392 18.3607 35.7257C18.3607 35.643 18.278 35.5602 18.1953 35.4775C18.6088 35.1467 18.278 35.064 18.1953 34.5678C18.278 34.4851 18.278 34.4024 18.3607 34.3197C18.278 34.237 18.1126 34.1543 18.0299 34.0716C17.8645 34.1543 17.7818 34.1543 17.6991 34.1543ZM19.0223 43.3343C19.105 43.2516 19.105 43.1689 19.0223 43.0862H18.9396L19.0223 43.3343ZM24.7288 12.4863C24.8115 12.9825 24.8115 13.4787 24.7288 13.9749C25.1423 13.7268 25.4731 13.396 25.8039 13.0652C25.3077 12.569 26.052 12.1555 25.8866 11.6593C25.7212 11.6593 25.5558 11.742 25.3904 11.742C25.225 12.1555 24.8942 12.2382 24.7288 12.4863ZM30.4353 -2.06932C30.7661 -2.06932 31.0142 -2.06932 31.4277 -2.15202C31.5104 -2.15202 31.5104 -2.23472 31.5931 -2.23472C31.5931 -2.23472 31.5931 -2.31743 31.5931 -2.40013C31.2623 -2.40013 31.2623 -2.64824 30.9315 -2.89634C30.8488 -2.56553 30.518 -2.56553 30.3526 -2.48283C30.1872 -2.23472 30.1045 -1.98662 30.1045 -1.73851H30.1872C30.1872 -1.82121 30.3526 -1.98662 30.4353 -2.06932ZM39.2844 3.30633C39.2844 3.22363 39.3671 3.14093 39.2844 2.89282C39.2017 3.05823 39.2017 3.22363 39.119 3.30633H39.2844ZM41.1039 3.05822C41.0212 3.14093 41.1039 3.22363 41.1866 3.22363C41.2693 3.14093 41.2693 3.14093 41.352 3.05822C41.2693 3.05822 41.1866 3.05822 41.1039 3.05822ZM108.175 -5.37741C108.258 -5.12931 108.093 -4.7158 108.424 -4.8812C108.506 -5.04661 108.341 -5.29471 108.175 -5.37741ZM115.619 1.56958C115.288 1.15607 114.792 0.990665 114.213 0.990665C114.047 1.48688 113.882 1.90039 113.717 2.39661C114.13 2.56201 114.213 2.39661 114.874 2.3139C114.957 2.39661 114.957 2.47931 115.04 2.47931C115.205 2.2312 115.371 1.81769 115.619 1.56958ZM118.927 8.10307C119.34 8.02037 119.258 8.26847 119.671 8.26847C119.671 7.93767 119.671 7.52415 119.506 7.35875C118.927 7.11064 119.175 7.93766 118.927 8.10307ZM130.505 57.5591C130.588 57.4764 130.671 57.3937 130.671 57.311C130.422 57.2283 130.092 57.2283 129.926 57.4764C130.092 57.4764 130.34 57.4764 130.505 57.5591C130.505 57.4764 130.505 57.4764 130.505 57.5591ZM125.378 70.7915C125.378 70.5433 125.874 70.5433 125.626 70.2125C125.129 70.1298 124.964 70.7087 125.378 70.7915ZM116.28 72.1974C116.446 72.1974 116.611 72.1974 116.694 72.2801C116.694 72.1147 116.694 72.032 116.611 71.9493C116.528 71.9493 116.363 71.9493 116.28 71.9493C116.28 72.032 116.28 72.1147 116.28 72.1974ZM114.626 72.6109C114.709 72.6109 114.792 72.6109 114.792 72.6109C114.957 72.3628 115.122 72.032 115.288 71.7839C114.957 71.8666 114.461 72.032 114.626 72.6109ZM94.695 59.792C94.7777 60.1228 94.9431 60.2883 95.2739 60.1228C95.3566 59.7093 95.0258 59.8747 94.695 59.792ZM94.2815 61.1153C94.5296 61.2807 95.0258 61.1153 94.8604 60.7845H94.7777C94.6123 60.7018 94.3642 60.8672 94.2815 61.1153ZM58.6368 67.6488C59.0503 67.8142 59.0503 67.0698 58.6368 67.2352V67.6488ZM52.8476 65.4985C52.9303 65.7466 52.6822 66.4082 53.0957 66.2428C53.2611 65.9947 53.5092 65.6639 53.5919 65.3331C53.2611 65.1677 52.9303 65.085 52.4341 65.1677C52.5995 65.2504 52.7649 65.4158 52.8476 65.4985ZM49.0433 64.0099C48.9606 63.9272 48.9606 63.8445 48.9606 63.7617L48.7125 63.8445L48.7952 64.0926L49.0433 64.0099ZM37.3823 70.7087H37.1342V70.9569H37.3823V70.7087ZM30.7661 64.258C30.7661 64.5061 30.518 64.5061 30.4353 64.6715C30.6007 64.9196 31.0142 64.8369 31.5104 64.8369V64.4234C30.9315 64.5888 31.2623 64.3407 30.7661 64.258ZM30.0218 62.7693C29.8564 62.6039 29.5255 62.6039 29.4428 62.9347C29.5255 63.1001 30.0218 63.1001 30.0218 62.7693ZM23.1575 47.8829C23.8191 47.304 22.8267 47.4694 23.1575 47.8829ZM36.9688 -3.72337L37.0515 -3.47526L37.2996 -3.55796L37.2169 -3.80607L36.9688 -3.72337ZM47.1411 4.29876C47.0584 4.29876 46.9757 4.29876 46.893 4.38146C46.7276 4.46416 46.6449 4.62957 46.7276 4.79498C46.8103 4.79498 46.893 4.71227 46.9757 4.71227C47.0584 4.54686 47.1411 4.54687 47.1411 4.29876ZM61.0351 1.98309C60.9524 1.81769 61.1178 1.40418 60.7043 1.56958C60.7043 1.73498 60.5389 1.81769 60.4562 1.98309C60.6216 1.98309 60.787 1.98309 61.0351 1.98309ZM77.2448 -0.497978C77.1621 -0.415276 77.0794 -0.332573 76.914 -0.24987C77.3275 -0.0844656 77.6583 -0.00176211 78.1545 0.0809402C77.741 -0.0844645 77.4929 -0.249871 77.2448 -0.497978ZM116.363 7.27605C116.28 6.28362 117.19 5.45659 116.363 4.96038C116.28 4.96038 116.28 4.87767 116.198 4.87767C116.777 5.622 115.205 6.77983 116.363 7.27605ZM120.581 25.9668C120.746 26.6284 120.167 26.8765 120.167 27.3727C120.498 27.3727 120.829 27.2073 121.16 27.1246C121.242 26.7111 121.325 26.2976 121.573 25.9668C121.16 25.8841 120.829 25.8841 120.581 25.9668ZM119.423 57.7245C119.423 57.7245 119.423 57.7245 119.34 57.8072C119.34 58.0553 119.258 58.2207 119.175 58.4688C119.423 58.2207 119.34 57.9726 119.423 57.7245ZM112.062 45.898C112.062 46.0634 112.228 46.2289 112.311 46.477C112.559 46.1461 113.055 45.898 112.476 45.6499C112.311 45.6499 112.145 45.8153 112.062 45.898ZM76.8313 82.039C76.6659 81.8736 76.5005 81.6255 76.3351 81.3773C75.9216 81.3773 75.508 81.3773 75.0118 81.3773C75.2599 81.8736 75.6734 82.4525 75.7561 82.7833C76.087 82.6179 76.4178 82.3698 76.8313 82.039ZM61.5313 77.573C61.6141 77.4903 61.5313 77.2422 61.3659 77.2422C61.0351 77.2422 61.2832 77.7384 61.5313 77.573ZM22.165 34.8159C22.2477 34.9813 21.7515 35.3121 22.165 35.2294C22.165 35.1467 22.165 35.064 22.2477 35.064C22.4131 35.1467 22.4958 35.3121 22.7439 35.2294C22.7439 35.1467 22.7439 35.064 22.7439 34.9813C22.8267 34.9813 22.8267 34.8986 22.8267 34.8986C22.7439 34.8159 22.4958 34.7332 22.165 34.8159ZM23.9845 31.5905C23.9845 31.5905 23.9018 31.6732 23.9018 31.7559C23.9845 31.7559 23.9845 31.7559 24.0672 31.7559C24.0672 31.6732 23.9845 31.6732 23.9845 31.5905ZM33.0817 -2.56554C33.0817 -2.48283 33.0817 -2.31743 33.0817 -2.15202C33.1644 -2.23473 33.2471 -2.23473 33.3298 -2.31743C33.4126 -2.48283 33.3298 -2.56554 33.0817 -2.56554ZM34.6531 -1.2423L34.7358 -0.99419L35.232 -1.1596L35.1493 -1.4077L34.6531 -1.2423ZM58.0578 4.05065C58.2233 3.80254 57.9751 3.80255 57.8097 3.47174C57.2308 3.47174 57.5616 4.29876 58.0578 4.05065ZM56.9 5.20849C56.9827 5.20849 56.9827 5.20849 56.9827 5.04308C56.9 5.04308 56.9 5.04308 56.8173 5.04308C56.7346 5.12579 56.9 5.12579 56.9 5.20849ZM64.1778 4.79498C64.0124 4.79498 63.847 4.87768 63.6816 4.96038C63.6816 5.04308 63.5989 5.12578 63.5162 5.12578C63.7643 5.20848 64.0951 5.37389 64.3432 5.5393C64.5086 5.29119 64.7567 5.20848 65.0048 5.29119C65.0875 5.12578 65.3357 5.04308 65.3357 4.87767C65.1703 4.79497 65.0049 4.71227 64.8394 4.71227C64.674 4.87767 64.5086 5.04308 64.1778 5.04308C64.1778 4.96038 64.1778 4.87768 64.1778 4.79498ZM75.3426 1.81769C75.1772 1.81769 75.0118 1.90039 74.8464 1.90039C75.1772 2.31391 75.3426 2.81012 75.3426 3.30633C75.8389 3.14093 75.8389 3.30633 76.4178 3.30633C76.4178 2.56201 77.5756 2.81012 78.0718 2.56201L78.1545 2.39661C77.0794 2.39661 76.0043 2.47931 75.3426 1.81769ZM97.5896 3.96795V3.80255H97.3415V3.96795C97.4242 3.96795 97.5069 3.96795 97.5896 3.96795ZM101.477 -1.1596C101.477 -1.2423 101.311 -1.2423 101.146 -1.325C101.063 -1.2423 100.98 -1.07689 100.98 -0.99419C100.98 -0.911488 101.063 -0.911487 101.063 -0.828785C101.063 -1.15959 101.228 -1.1596 101.477 -1.1596ZM110.574 1.81769C110.822 1.56958 110.987 1.23877 110.987 0.907963C109.912 0.742558 109.747 1.23877 109.085 1.40417C109.581 1.65228 110.078 1.81769 110.574 1.81769ZM115.95 7.35875C115.95 7.27604 115.867 7.27604 115.784 7.19334C115.867 7.27604 115.867 7.27604 115.95 7.35875ZM126.287 52.7623C126.866 52.845 127.362 53.3413 128.107 53.0931C127.941 52.1007 127.28 52.1834 126.866 51.5218C126.453 51.8526 126.453 52.3488 126.287 52.7623ZM128.52 50.8602C128.438 50.9429 128.438 51.0256 128.438 51.191C128.438 51.191 128.52 51.191 128.603 51.191C128.52 51.1083 128.52 51.1083 128.52 51.1083C128.52 51.0256 128.52 50.9429 128.52 50.8602ZM125.295 55.2434L125.212 54.9953L124.964 55.078L125.047 55.3261L125.295 55.2434ZM125.956 65.085L125.708 65.1677L125.791 65.4158L126.039 65.3331L125.956 65.085ZM108.01 62.2731C108.175 62.1904 108.341 62.1077 108.506 62.025C108.424 62.025 108.424 61.9423 108.424 61.8596C108.341 61.9423 108.341 62.1077 108.01 62.1077C108.01 62.1904 108.01 62.1904 108.01 62.2731ZM106.852 62.1077C106.852 62.1077 106.852 62.025 106.77 61.9423C106.687 61.9423 106.604 62.025 106.521 62.025L106.604 62.1904L106.852 62.1077ZM75.8389 80.3849C76.0043 80.9638 75.0118 80.4676 75.8389 80.3849ZM41.4347 41.6802C41.352 41.7629 41.1866 41.9283 41.1039 42.011C41.2693 42.011 41.5174 41.8456 41.4347 41.6802ZM35.5628 59.9574C35.8109 60.1228 36.059 60.2883 36.3898 60.4537C36.8033 59.9574 36.6379 59.2131 37.2169 58.6342C36.8861 58.6342 36.6379 58.6342 36.3898 58.7169C36.1417 59.1304 35.8936 59.5439 35.5628 59.9574ZM26.9618 19.8468C26.7964 20.2603 27.2099 20.0949 27.5407 20.0949V19.6814C27.2926 19.6814 27.2099 19.8468 26.9618 19.8468ZM31.2623 14.9674C31.345 14.8847 31.4277 14.9674 31.6758 14.9674C31.5931 14.9674 31.4277 14.8847 31.2623 14.9674ZM32.9163 1.23877C32.9163 1.15607 32.9163 1.15607 32.9163 1.23877ZM31.6758 49.4542L31.7585 49.7023L32.0066 49.6197L31.9239 49.3715L31.6758 49.4542ZM38.8709 15.7944C38.9536 15.7944 39.0363 15.7944 39.0363 15.7944C39.119 15.629 39.2017 15.5463 39.2017 15.3809C39.0363 15.4636 38.9536 15.629 38.8709 15.7944ZM34.0742 21.2527L34.1569 21.5009L34.405 21.4181L34.3223 21.17L34.0742 21.2527ZM35.7282 31.8386H35.9763V31.5905H35.7282V31.8386ZM34.405 50.1159C34.6531 50.2813 34.9839 50.1986 35.232 50.1986C35.3147 50.0332 35.3974 49.7851 35.3974 49.6197C35.0666 49.5369 34.405 49.5369 34.405 50.1159ZM38.8709 21.749L38.5401 21.8317V21.9144H38.8709V21.749ZM33.7434 31.3424C33.6607 31.4251 33.578 31.5078 33.6607 31.5905C33.7434 31.5905 33.9088 31.6732 33.9915 31.7559C34.0742 31.5905 33.9915 31.3424 33.7434 31.3424ZM38.2093 33.2446C38.6228 32.9965 39.2017 32.8311 39.7806 32.583C39.6979 32.4176 39.6979 32.3349 39.7806 32.1695L38.9536 32.4176C38.8709 32.7484 38.5401 33.0792 38.2093 33.2446ZM40.3596 30.0192C40.3596 30.4327 41.1039 30.1846 40.7731 29.9365L40.3596 30.0192ZM39.8633 15.1328C39.8633 15.0501 39.8633 15.0501 39.8633 14.9674C39.6979 15.0501 39.5325 15.2155 39.3671 15.2982C39.5325 15.2982 39.6979 15.2155 39.8633 15.1328ZM38.1266 41.7629C38.2093 41.8456 38.2093 41.9283 38.2093 42.011H38.292L38.1266 41.7629ZM48.5471 45.3191C48.6298 45.4018 48.6298 45.4845 48.7952 45.5672C48.7952 45.5672 48.7125 45.3191 48.5471 45.3191ZM46.6449 21.5009C46.893 21.3354 47.0584 21.0873 47.1411 20.7565C46.9757 20.6738 46.893 20.5084 46.7276 20.4257C46.2314 20.5911 45.7352 20.8392 45.3217 21.17C45.1563 21.5008 44.8255 21.8317 44.8255 22.4106C44.4947 22.576 44.412 22.8241 43.9985 22.9068C43.9985 23.403 43.6676 23.8992 43.1714 24.0646C43.1714 24.3954 43.0887 24.7262 42.8406 24.9743C43.4195 24.9743 43.9985 24.9743 44.5774 24.9743C44.7428 24.8089 44.8255 24.6435 44.9909 24.4781C45.4044 23.5684 46.3968 22.7414 46.6449 21.5009ZM33.4953 12.1555C33.7434 12.1555 33.9088 12.1555 34.0742 12.0728C34.3223 11.742 34.6531 11.4939 35.1493 11.3285C35.1493 11.2458 35.1493 11.2458 35.1493 11.1631C34.3223 11.1631 33.4126 11.4112 33.4953 12.1555ZM33.9915 3.55444C34.2396 3.96795 33.4953 3.88525 33.7434 4.29876C33.9915 4.21606 34.2396 4.21606 34.405 4.29876C34.4877 3.96795 34.6531 3.55444 34.9012 3.30633C34.6531 3.47174 34.3223 3.55444 33.9915 3.55444ZM30.7661 48.2137C30.4353 48.6272 30.1872 49.0407 29.9391 49.5369C30.1872 49.6197 30.4353 49.7023 30.6834 49.8678C30.9315 49.6196 31.0969 49.3715 31.2623 49.0407C31.7585 48.958 32.2547 48.7099 32.5855 48.2964C32.6682 48.131 32.6682 47.9656 32.7509 47.8002C32.7509 47.6348 32.5028 47.5521 32.0893 47.5521C31.5931 47.6348 31.0969 47.8829 30.7661 48.2137ZM32.0893 54.1683C32.0066 54.4164 31.8412 54.6645 31.7585 54.9953C31.9239 54.9953 32.0066 54.9953 32.172 54.9953C32.5028 55.078 32.6682 55.5742 33.2471 55.3261C33.4953 54.5818 32.5855 54.4164 32.0893 54.1683ZM37.3823 52.7623C37.2996 52.6796 37.2996 52.6796 37.2996 52.6796C37.1342 52.5969 36.8861 52.5969 36.6379 52.5969C36.5552 52.6796 36.5552 52.845 36.5552 53.0104C36.9688 53.0931 36.8861 52.5969 37.3823 52.7623ZM90.6426 5.45659C90.6426 5.53929 90.5599 5.7047 90.4772 5.87011C90.8907 5.7874 91.5523 5.7047 91.3042 5.37389L90.8907 5.5393C90.808 5.5393 90.7253 5.53929 90.6426 5.45659ZM109.499 11.4939C109.581 12.0728 108.589 11.6593 109.499 11.4939ZM99.4917 27.4554C99.0782 26.3803 100.071 25.8841 100.98 26.2149C101.063 26.1322 101.063 26.1322 101.063 26.1322C100.65 25.8841 100.236 25.636 99.6571 25.5533C98.9955 25.9668 98.2512 26.3803 98.2512 27.1246C98.7474 27.2073 98.9128 27.6208 99.4917 27.4554ZM64.5086 38.3721C64.5913 38.2894 64.5913 38.124 64.5913 38.0413C64.5086 37.8759 64.3432 37.7105 64.2605 37.5451C64.0951 37.5451 63.9297 37.5451 63.7643 37.6278C64.0951 37.8759 64.2605 38.124 64.5086 38.3721ZM55.4114 35.7257C55.7422 34.9813 56.7346 34.8159 57.0654 34.3197C56.9827 34.0716 56.9 33.8235 56.8173 33.6581C56.5692 33.7408 56.4038 33.9889 56.4038 34.237C55.5768 34.5678 54.8325 34.8986 54.7498 35.5602C54.9152 35.4775 55.1633 35.8084 55.4114 35.7257ZM93.4545 13.7268C93.5372 13.8922 93.0409 14.1403 93.4545 14.0576C93.4545 13.9749 93.4545 13.8922 93.5372 13.8922C93.7026 14.0576 93.868 14.223 94.2815 13.9749C94.1988 13.6441 93.7853 13.7268 93.4545 13.7268ZM98.582 19.1852C98.4993 19.3506 98.4993 19.4333 98.582 19.516C98.7474 19.5987 98.9955 19.5987 99.1609 19.6814C99.1609 19.3506 98.9128 19.2679 98.582 19.1852ZM101.559 52.5142C101.559 52.5969 101.477 52.6796 101.394 52.7623C101.642 52.7623 101.89 52.7623 101.807 52.5142H101.559ZM103.213 28.1997L102.965 28.2824L103.048 28.5306L103.296 28.4478L103.213 28.1997ZM102.883 22.9895C102.883 22.9068 102.883 22.8241 102.883 22.7414C102.8 22.8241 102.8 22.9068 102.8 22.9895H102.883ZM102.634 17.3657C102.469 17.5311 102.469 17.8619 102.552 18.1101C102.634 18.0273 102.717 17.9446 102.8 17.7792C102.8 17.6138 102.8 17.4484 102.634 17.3657ZM100.98 16.456C101.228 16.3733 101.559 16.456 101.477 16.3733C101.311 16.2079 100.898 15.7117 100.815 15.9598C101.063 15.9598 100.98 16.2906 100.98 16.456ZM99.5744 12.2382C99.5744 12.2382 99.6571 12.2382 99.6571 12.3209C99.6571 12.2382 99.6571 12.2382 99.5744 12.1555V12.2382ZM94.695 21.5009C94.8604 21.6663 95.1912 21.6663 95.4393 21.6663L95.522 21.5835C95.3566 21.3354 95.1912 21.17 95.1912 21.0046C95.1085 21.0046 95.0258 21.0046 94.9431 21.0046C95.0258 21.2527 94.6123 21.17 94.695 21.5009ZM81.4626 38.7029C81.4626 38.6202 81.4626 38.4548 81.2972 38.2067C81.1318 38.124 81.0491 37.7932 80.8837 37.7932C80.4702 37.7105 79.8913 37.7932 79.4778 37.9586V38.0413C79.147 38.6202 78.9815 39.2819 79.1469 39.8608C79.5605 39.7781 79.974 39.8608 80.4702 40.0262C80.7183 39.7781 80.801 39.4473 80.6356 39.1992C81.2145 39.2819 80.8837 38.6202 81.4626 38.7029ZM66.6589 6.61443C66.7416 6.86253 66.907 6.94524 67.1551 6.86253C67.1551 6.69713 67.0724 6.53172 66.9897 6.44902C66.8243 6.44902 66.8243 6.36632 66.6589 6.61443ZM74.5983 16.9522C74.1021 17.0349 73.6059 16.7868 73.4405 16.3733C73.1924 16.3733 72.9443 16.3733 72.6962 16.3733C72.9443 17.0349 73.1924 17.6138 73.9367 17.8619C74.1021 17.5311 74.5983 17.4484 74.5983 16.9522ZM76.9967 14.1403H76.7486C76.7486 14.3884 76.8313 14.3884 76.9967 14.3884V14.1403ZM75.8389 20.1776C76.0043 20.0949 76.1697 20.0122 76.0043 19.8468C75.8389 19.9295 75.6734 19.9295 75.6734 20.0949C75.7561 20.0949 75.8389 20.0949 75.8389 20.1776ZM73.027 23.2376C72.8616 23.3203 72.7789 23.403 72.6962 23.3203C72.3654 23.9819 71.9518 24.6435 71.3729 25.2225C71.7037 25.3052 72.0345 25.3879 72.4481 25.4706C72.4481 25.3879 72.5308 25.2225 72.5308 25.057C73.6059 24.8089 73.6059 23.7338 74.2675 23.1549C74.3502 23.0722 74.3502 22.9895 74.3502 22.9068C74.4329 22.576 74.1021 22.2452 73.7713 22.2452H73.5232L73.4405 22.4106C73.5232 22.7414 73.2751 22.9895 73.027 23.2376ZM74.2675 28.2824C74.3502 28.2824 74.4329 28.2824 74.5983 28.117C74.4329 28.1997 74.3502 28.117 74.2675 28.117C74.2675 28.1997 74.2675 28.1997 74.2675 28.2824ZM70.5459 36.0565C70.6286 36.0565 70.6286 36.0565 70.6286 36.1392C70.6286 36.0565 70.6286 36.0565 70.6286 36.0565H70.5459ZM66.5762 28.7787C66.4108 28.8614 66.3281 28.9441 66.1627 29.1095C66.2454 29.1095 66.3281 29.1922 66.4108 29.1922C66.4935 29.0268 66.4935 28.9441 66.5762 28.7787ZM68.4783 29.523C68.3129 29.6884 68.3129 29.8538 68.3129 30.0192C68.4783 30.0192 68.561 29.9365 68.7264 29.9365C68.7264 29.7711 68.8092 29.6884 68.8919 29.523C68.8092 29.4403 68.6438 29.4403 68.4783 29.523ZM76.1697 20.5911C76.1697 20.5911 76.2524 20.5084 76.2524 20.343L76.087 20.5084C76.087 20.5911 76.1697 20.5911 76.1697 20.5911ZM72.3654 16.3733C72.2827 16.3733 72.2 16.3733 72.1172 16.3733V16.456L72.3654 16.3733ZM66.4935 15.3809C66.4108 15.2982 66.1627 15.2982 66.08 15.3809C66.2454 15.4636 66.3281 15.4636 66.4935 15.5463C66.4935 15.5463 66.4935 15.4636 66.4935 15.3809ZM66.8243 18.689C66.6589 18.8544 66.4935 19.0198 66.2454 19.1025C66.4935 19.516 66.8243 19.7641 67.3205 19.8468C67.2378 20.4257 67.5686 20.7565 68.1475 20.7565C68.4783 20.5911 68.3956 20.0949 69.2227 20.2603C69.3054 19.1025 67.5686 19.2679 67.1551 18.4409C66.9897 18.5236 66.907 18.6063 66.8243 18.689ZM63.4335 20.9219C63.2681 21.0873 63.1854 21.17 63.02 21.2527C63.02 21.0873 62.8546 20.9219 62.8546 21.17C62.7719 21.17 62.6892 21.2527 62.7719 21.3354C63.1027 21.4181 63.2681 21.9144 63.7643 22.2452C63.847 22.2452 63.847 22.3279 63.9297 22.4106C64.0951 22.4933 64.1778 22.576 64.3432 22.576C64.3432 22.1625 64.5086 21.6663 64.0951 21.6663C64.0951 21.9144 63.9297 21.9971 63.6816 21.9144C63.4335 21.5836 63.4335 21.2527 63.4335 20.9219ZM73.4405 66.4909C73.6886 66.6563 73.9367 66.739 74.0194 66.8217C74.2675 66.4909 75.1772 66.6563 75.0945 66.0774C74.9291 65.9947 74.7637 65.8293 74.681 65.6639C74.1848 65.7466 73.6059 65.6639 73.2751 65.3331C73.1924 65.4985 73.1097 65.6639 73.027 65.912C73.1097 65.9947 73.1924 66.0774 73.2751 66.1601C73.3578 66.2428 73.3578 66.4082 73.4405 66.4909ZM91.0561 17.6138C91.5523 17.6138 91.8831 17.283 92.0485 16.7868C91.8004 17.1176 91.4696 17.3657 91.0561 17.6138ZM85.8458 15.7117C85.9285 15.7117 86.0112 15.7117 86.1766 15.7117C86.2593 15.629 86.3421 15.5463 86.4248 15.4636C86.1767 15.5463 86.0112 15.629 85.8458 15.7117ZM88.6577 48.6272L88.4096 48.7099V48.7926L88.6577 48.6272ZM88.4096 11.9901C88.3269 12.4036 89.2366 12.4863 89.2366 12.1555C88.8231 12.2382 88.8231 11.9074 88.4096 11.9901ZM82.8686 21.9144L82.7859 21.9971C82.7859 22.0798 82.7859 22.1625 82.7859 22.2452C82.7859 22.0798 82.8686 21.9971 82.8686 21.9144ZM69.0573 9.34361C69.14 9.2609 69.2227 9.2609 69.3054 9.0955C68.9746 8.84739 68.4783 8.84739 68.0648 9.0955C68.3956 9.1782 68.7264 9.2609 69.0573 9.34361ZM66.9897 7.27605L66.6589 7.35875C66.8243 7.35875 66.907 7.35875 66.9897 7.27605ZM54.2535 32.9138V32.9965C54.3362 32.9965 54.3362 32.9138 54.4189 32.9138H54.2535ZM55.1633 33.5754C55.1633 33.6581 55.1633 33.7408 55.1633 33.9062L55.4114 33.8235L55.3287 33.5754H55.1633ZM58.8849 47.8829C58.4714 47.8829 58.4714 48.131 58.1406 48.2137C58.2233 48.5445 58.4714 48.7926 58.8022 48.8753C58.9676 48.6272 59.133 48.4618 59.2157 48.2137C59.0503 48.2137 58.8849 48.0483 58.8849 47.8829ZM60.787 33.8235C61.4486 34.0716 61.5314 34.7332 61.9449 35.2294C62.4411 35.2294 62.2757 34.8159 62.4411 34.6505C62.193 34.237 61.614 34.237 61.3659 33.4927C61.2005 33.6581 60.7043 33.5754 60.787 33.8235ZM94.1988 23.4857C94.1988 23.5684 94.2815 23.7338 94.2815 23.8165C94.6123 23.8165 94.5296 23.403 94.2815 23.3203C94.2815 23.403 94.1988 23.403 94.1988 23.4857ZM101.146 57.2283C101.146 57.3937 101.311 57.4764 101.394 57.5591C101.807 57.4764 101.725 56.4012 102.469 56.1531C102.469 56.1531 102.469 56.0704 102.469 55.9877C102.469 56.0704 102.386 56.0704 102.386 56.0704C101.477 55.9877 101.394 56.8148 101.146 57.2283ZM105.364 38.7029C105.446 38.7029 105.446 38.7029 105.446 38.6202C105.364 38.6202 105.364 38.7029 105.364 38.7029ZM106.77 51.6045C106.852 51.6045 106.935 51.6045 107.018 51.6045C107.183 51.5218 107.431 51.4391 107.597 51.3564C107.679 51.3564 107.762 51.3564 107.845 51.3564V51.2737C107.762 51.191 106.77 51.3564 106.77 51.6045ZM108.424 49.5369C108.506 49.7024 108.506 50.0332 108.754 50.0332C108.754 49.8678 109.251 49.2888 108.92 49.2888C108.92 49.4542 108.589 49.4542 108.424 49.5369ZM97.755 11.6593C97.5896 11.8247 97.4242 11.9074 97.2588 11.9901C97.5896 12.1555 98.0031 12.2382 98.4166 12.1555C98.2512 11.8247 97.8377 11.9901 97.755 11.6593ZM95.1912 14.3884C95.1085 14.3057 95.0258 14.223 94.9431 14.223C94.7777 14.3057 94.6123 14.4711 94.5296 14.6366C94.695 14.7193 95.0258 14.802 95.1912 14.3884ZM85.3496 12.4863C85.3496 12.4036 85.3496 12.4036 85.2669 12.4036L85.3496 12.4863ZM61.4486 18.4409C61.2832 18.5236 61.1178 18.6063 60.9524 18.7717C60.8697 19.1025 60.787 19.3506 60.7043 19.6814C60.8697 19.8468 61.0351 20.0122 61.2005 20.2603C61.5313 20.0122 61.7795 19.6814 61.9449 19.3506C62.0276 19.2679 62.0276 19.2679 62.1103 19.2679C61.9449 18.9371 61.6968 18.689 61.4486 18.4409ZM54.2535 24.3127C54.2535 24.3127 54.2535 24.23 54.2535 24.0646C54.1708 23.9819 53.84 24.1473 53.84 24.23C53.84 24.3127 53.84 24.3127 53.84 24.3127C53.9227 24.3127 54.0881 24.3127 54.2535 24.3127ZM55.9076 44.3267C55.9903 44.6575 56.1557 44.9056 56.2384 45.071C56.6519 45.071 57.2308 45.071 57.6443 45.2364C57.727 44.9883 58.1406 44.9056 58.306 44.6575C57.6443 43.6651 56.9 43.9959 55.9076 44.3267ZM56.9 52.845C56.6519 52.9277 55.7422 52.7623 56.1557 53.3413C56.4865 53.0104 56.9827 53.3413 56.9 52.845ZM59.0503 56.5667C58.8849 56.9802 58.6368 57.311 58.5541 57.8072C59.2157 57.8899 59.0503 57.1456 59.6292 57.0629C59.5465 56.9802 59.4638 56.8975 59.4638 56.8148C59.2984 56.732 59.133 56.6494 59.0503 56.5667ZM71.0421 79.2271C70.9594 79.1444 70.8767 79.1444 70.794 79.1444L70.7113 79.2271C70.794 79.2271 70.9594 79.2271 71.0421 79.2271ZM76.914 74.9266C77.2448 74.9266 77.5756 74.9266 78.0718 74.8439C78.0718 74.5957 78.0718 74.3476 77.9891 74.0995C77.9064 74.0995 77.8237 74.0168 77.741 74.0168C77.3275 74.3476 77.0794 74.5958 76.914 74.9266ZM102.469 68.8066C102.552 68.8893 102.552 68.972 102.634 69.1374C102.552 69.0547 102.552 68.8893 102.469 68.8066ZM114.213 20.7565C114.295 20.7565 114.378 20.7565 114.378 20.8392C114.378 20.6738 114.378 20.5911 114.378 20.4257C114.295 20.4257 114.213 20.4257 114.13 20.4257C114.213 20.5084 114.295 20.6738 114.213 20.7565ZM117.604 37.6278H117.19C117.19 37.9586 116.942 37.8759 117.19 38.124C117.521 38.124 117.604 37.9586 117.604 37.6278ZM115.288 50.9429C115.701 51.1083 115.701 50.364 115.288 50.5294V50.9429ZM117.769 52.1834C117.769 52.018 117.852 51.8526 117.934 51.5218C117.934 51.3564 117.852 51.191 117.769 51.1083C117.604 50.8602 117.438 50.6121 117.19 50.2813C116.777 51.0256 116.611 52.018 115.784 52.4315C115.867 52.5142 115.95 52.5969 116.032 52.6796C116.528 52.1834 116.777 52.3488 117.521 52.4315C117.604 52.3488 117.686 52.2661 117.769 52.1834ZM111.566 20.0122C111.484 19.6814 111.649 19.516 111.732 19.4333C111.401 19.3506 111.153 19.2679 110.905 19.1025C110.905 19.3506 110.822 19.5987 110.739 19.8468C110.905 19.9295 111.153 20.0122 111.566 20.0122ZM94.5296 3.55444V3.30633C94.2815 2.97552 93.7026 3.05823 93.2063 2.89282C93.4545 3.38904 94.0334 3.63714 94.5296 3.55444ZM72.9443 2.64471C72.6135 2.3966 72.2 2.2312 71.7864 2.1485C71.7864 2.39661 71.621 2.56201 71.4556 2.72742C71.7864 3.22363 72.2827 3.63714 72.8616 3.96795C72.9443 3.96795 73.027 3.88525 73.1097 3.80255C73.027 3.38904 72.7789 3.14092 72.9443 2.64471ZM61.2005 6.86253C61.1178 6.94524 60.9524 7.02794 60.787 7.11064C60.6216 7.35875 60.4562 7.68955 60.2908 8.02036C60.9524 8.26847 61.6968 8.43388 62.4411 8.43388C62.2757 7.93766 62.1103 7.44145 61.9449 6.94524C61.6141 7.11064 61.3659 7.35875 61.2005 6.86253ZM55.9903 21.2527C55.4114 21.5008 54.8325 21.8317 54.0881 22.1625C54.1708 22.2452 54.1708 22.4106 54.0881 22.4933C54.0881 22.8241 54.0881 23.1549 54.2535 23.3203C55.4114 22.8241 55.4114 22.1625 55.9903 21.2527ZM32.7509 1.32148C32.5855 1.23877 32.4201 1.32147 32.2547 1.40417C32.2547 1.56958 32.4201 1.56958 32.5855 1.56958C32.5855 1.48688 32.5028 1.48688 32.5028 1.40417C32.5855 1.40417 32.6682 1.32148 32.7509 1.32148ZM27.1272 20.5084C26.9618 20.5084 26.7964 20.5084 26.7964 20.7565C26.9618 20.6738 27.0445 20.5911 27.1272 20.5084ZM30.7661 57.0629C31.0969 57.4764 31.5931 57.4764 32.0066 57.7245C32.0893 57.5591 32.0893 57.4764 32.172 57.311H32.0893C32.0066 57.311 31.9239 56.9802 31.9239 56.9802C31.6758 56.8975 31.6758 57.2283 31.4277 57.2283C31.1796 57.2283 30.9315 56.732 30.8488 56.8975C30.7661 56.9802 30.7661 56.9802 30.7661 57.0629ZM32.6682 57.0629C32.5028 57.1456 32.4201 57.2283 32.2547 57.311C32.3374 57.311 32.5028 57.311 32.5028 57.311C32.5855 57.2283 32.5855 57.1456 32.6682 57.0629ZM36.8861 66.4082C36.9688 66.3255 36.9688 66.1601 36.9688 66.0774C36.9688 66.2428 36.8861 66.3255 36.8861 66.4082ZM45.7352 66.9871C46.066 67.2353 46.3968 67.4834 46.3141 67.8142C46.5622 67.9796 46.893 67.9796 47.3065 68.145C47.0584 67.4007 46.5622 66.9044 45.7352 66.9871ZM51.8552 62.6039C51.8552 62.6866 51.8552 62.7693 51.9379 62.852H52.0206C52.0206 62.7693 51.9379 62.6866 51.8552 62.6039ZM64.0951 62.5212V63.0174H64.3432V62.5212H64.0951ZM70.4632 84.52C70.3805 84.6027 70.2978 84.7682 70.2151 84.8509L70.7113 84.6854L70.6286 84.4373L70.4632 84.52ZM72.6962 86.753C72.4481 86.8357 72.2 86.9184 72.0345 87.0011C72.7789 87.1665 73.5232 87.3319 74.2675 87.58C74.2675 87.4973 74.1848 87.3319 74.1848 87.2492C74.0194 86.9184 73.4405 86.6703 73.1097 87.0838C72.9443 87.0011 72.8616 86.8357 72.6962 86.753ZM105.364 68.5585C105.943 68.145 106.439 67.6488 106.604 67.1525C106.108 66.9871 105.612 66.8217 105.115 66.5736C104.785 65.2504 104.288 64.9196 104.04 64.1753C103.544 64.1753 104.04 64.6715 103.544 64.7542C103.958 65.3331 103.461 65.5812 103.461 65.9947C103.544 66.0774 103.627 66.1601 103.71 66.2428C104.454 67.318 104.371 68.5585 105.364 68.5585ZM108.175 64.258C108.258 64.4234 108.093 64.8369 108.424 64.7542C108.506 64.5061 108.424 64.258 108.175 64.258ZM108.175 55.4088C108.258 55.4088 108.341 55.4915 108.341 55.4088C108.424 55.4088 108.506 55.4088 108.506 55.3261C108.424 55.078 108.258 54.9953 108.093 54.9953C108.01 55.1607 108.175 55.1607 108.175 55.4088ZM125.378 56.732C125.708 56.4012 126.122 56.0704 126.618 55.905C125.874 55.9877 125.047 56.0704 124.302 56.1531C124.551 56.5666 124.964 56.732 125.378 56.732ZM127.611 23.0722L127.445 23.1549V23.2376C127.445 23.1549 127.611 23.1549 127.611 23.0722ZM120.002 24.5608C119.919 24.0646 119.175 24.23 119.506 24.7262L120.002 24.5608ZM117.273 25.7187C117.438 25.9668 117.604 26.1322 117.852 26.2976C118.596 25.7187 118.431 24.8089 119.009 24.1473C118.844 24.1473 118.679 24.0646 118.596 23.9819C118.431 24.0646 118.265 24.23 118.1 24.3954C116.528 24.3127 116.032 24.6435 115.122 24.5608C115.122 24.6435 115.122 24.6435 115.122 24.7262C115.205 24.8089 115.205 24.8089 115.288 24.8916C115.453 24.9743 115.619 24.9744 115.536 25.2225C116.446 25.0571 116.363 25.8014 117.273 25.7187ZM113.386 5.04308C113.551 4.87768 113.717 4.79497 113.882 4.62957C113.634 4.62957 113.468 4.71227 113.303 4.71227C113.303 4.79497 113.303 4.96038 113.386 5.04308ZM108.92 -0.00176239C109.003 -0.0844647 109.002 -0.167168 109.085 -0.332573C108.92 -0.332573 108.837 -0.415272 108.672 -0.415272C108.672 -0.249867 108.754 -0.0844647 108.92 -0.00176239ZM107.845 -0.663383C107.679 -0.663383 107.514 -0.66338 107.348 -0.746082V-0.663383C107.431 -0.663383 107.679 -0.663383 107.845 -0.663383ZM107.018 9.67441C106.852 9.3436 106.521 9.0955 106.191 9.01279C105.943 9.2609 105.777 9.59171 105.777 9.92252C106.108 10.0879 106.439 10.336 106.77 10.5014C106.687 10.2533 106.852 10.0052 107.018 9.67441ZM103.875 7.11064C103.627 6.77983 103.544 6.44902 103.213 6.28362C103.131 6.77983 102.883 7.27604 102.552 7.68956C102.965 7.44145 103.379 7.27605 103.875 7.11064ZM100.484 -2.56554C100.401 -2.56554 100.319 -2.56554 100.236 -2.56554C100.236 -2.40013 100.153 -2.23472 100.071 -2.06932C100.815 -2.15202 100.65 -1.49041 101.146 -1.325C101.146 -1.73851 101.228 -2.06932 101.228 -2.31743C101.063 -2.23473 100.898 -2.15202 100.815 -2.31743C100.65 -2.73094 101.146 -2.73094 100.815 -3.14445C99.9879 -3.30986 100.815 -2.64824 100.484 -2.56554ZM98.9955 -4.38499L98.7474 -4.30228V-4.21958H98.9955V-4.38499ZM86.921 4.29876C86.8383 4.21606 86.7556 4.13336 86.5902 4.13336V4.21606C86.6729 4.21606 86.8383 4.29876 86.921 4.29876ZM81.1318 4.79498C81.2972 4.79498 81.4626 4.71227 81.628 4.71227C81.8761 4.46416 82.1242 4.38146 82.455 4.38146C82.3723 3.80255 82.0415 3.30633 81.3799 3.14093C81.3799 3.14093 81.2972 3.14093 81.2145 3.14093C80.801 3.63714 80.3875 4.13336 79.8086 4.54687C80.1394 4.62957 80.3875 4.87768 80.801 4.46416C80.8837 4.62957 81.0491 4.71227 81.1318 4.79498ZM61.2005 2.0658C61.2005 2.0658 61.2005 2.0658 61.2832 2.1485V2.0658H61.2005ZM54.9152 -2.40013L54.7498 -2.31743C54.7498 -2.23473 54.7498 -2.15202 54.7498 -2.06932L54.9979 -2.15202L54.9152 -2.40013ZM32.0066 1.73499C31.9239 1.90039 31.8412 1.98309 31.7585 2.1485V2.2312C31.9239 2.1485 32.0066 2.1485 32.172 2.1485C32.172 2.0658 32.2547 2.0658 32.3374 1.98309C32.3374 1.90039 32.3374 1.81769 32.3374 1.73499C32.2547 1.73499 32.0893 1.73499 32.0066 1.73499ZM25.4731 29.6884C25.0596 29.9365 24.8115 30.2673 24.6461 30.8462C24.8942 30.5981 25.225 30.4327 25.4731 30.1846C25.4731 30.1019 25.4731 30.1019 25.4731 30.0192C25.9693 29.523 26.4656 28.8614 26.7137 28.1997L26.4656 27.9516C26.4656 28.0343 26.3829 28.117 26.3829 28.1997C25.8866 28.2824 25.9693 28.7787 25.5558 28.8614V29.6884H25.4731ZM22.4131 48.7099V48.958H22.6612V48.7099H22.4131ZM33.0817 64.258C33.0817 64.4234 32.9163 64.8369 33.3298 64.7542C33.4953 64.5061 33.4126 64.258 33.0817 64.258ZM49.2914 63.679H49.126L49.2087 63.9272H49.3741C49.3741 63.8445 49.2914 63.7617 49.2914 63.679ZM49.3741 56.8148C49.4568 56.9802 49.5395 57.0629 49.7049 57.2283C50.1184 56.8148 50.5319 56.4839 51.1109 56.0704C51.0282 55.8223 50.9455 55.5742 50.78 55.3261C50.2838 55.6569 49.7876 56.1531 49.3741 56.8148ZM61.1178 85.2644C61.4486 85.4298 61.6968 85.5952 61.8622 85.8433C62.0276 85.6779 62.1103 85.5125 62.1103 85.2644C61.9449 85.099 61.8622 84.9335 61.8622 84.7681C61.3659 85.0162 60.8697 84.4373 61.0351 84.1065C60.9524 84.0238 60.8697 84.1065 60.7043 84.1065C60.7043 84.52 60.8697 84.9335 61.1178 85.2644ZM64.674 76.9114C64.7567 76.9114 64.8394 76.9114 64.9221 76.8287H64.674V76.9114ZM81.5453 77.9039C81.5453 77.9866 81.4626 78.0693 81.4626 78.2347C81.628 78.2347 81.7107 78.3174 81.7934 78.4001C81.628 78.2347 81.7934 78.152 81.7107 77.9039C81.628 77.9039 81.628 77.9039 81.5453 77.9039ZM87.9961 81.2946L87.748 81.3773L87.8307 81.6255L88.0788 81.5428L87.9961 81.2946ZM102.634 78.7309C102.965 78.8136 103.213 79.0617 103.379 79.3098C103.544 79.3098 103.792 79.2271 103.958 79.1444C104.123 79.1444 104.123 79.0617 104.04 78.8963C103.792 78.7309 103.379 78.7309 103.048 78.8963C102.965 78.8136 102.8 78.6482 102.634 78.5655C102.717 78.6482 102.634 78.6482 102.634 78.7309ZM107.927 58.3861C108.341 58.2207 108.754 57.9726 109.168 57.7245C109.085 57.3937 108.92 57.1456 108.589 57.0629C108.589 57.1456 108.672 57.3937 108.589 57.4764C108.424 57.7245 108.175 57.8072 108.01 57.9726C107.927 58.138 107.927 58.2207 107.927 58.3861ZM132.076 40.2743C132.076 40.1916 132.076 40.1916 132.076 40.2743ZM127.693 20.0949V19.8468H127.362V20.0949H127.693ZM117.438 6.20092C117.19 6.61443 118.017 6.61442 118.017 6.36632C117.769 6.28362 117.769 6.11821 117.438 6.20092ZM104.785 -5.04661C104.867 -5.37742 104.785 -5.62552 104.537 -5.54282C104.537 -5.29471 104.206 -5.37742 104.288 -5.04661C104.371 -5.04661 104.454 -5.0466 104.537 -4.9639C104.619 -4.9639 104.702 -5.04661 104.785 -5.04661ZM95.1912 -4.8812C95.3566 -4.8812 95.4393 -4.9639 95.6047 -5.12931C95.3566 -5.12931 95.1085 -5.21201 95.1912 -4.8812ZM83.4475 -4.13688C83.3648 -4.21958 83.3648 -4.21958 83.4475 -4.13688ZM65.0048 0.990665C64.8394 0.990665 64.5913 0.907966 64.4259 0.825264C64.2605 1.15607 64.0951 1.40418 63.9297 1.65229C64.3432 1.48688 64.674 1.23877 65.0048 0.990665ZM62.4411 -7.11416C62.6065 -7.19687 62.6892 -7.36227 62.7719 -7.44497C62.4411 -7.69308 62.0276 -7.77578 61.5313 -7.69308C61.6968 -7.36227 62.0276 -7.19687 62.4411 -7.11416ZM53.6746 -6.28714C53.3438 -6.12174 53.2611 -6.20444 53.2611 -6.36984C53.1784 -6.28714 53.0957 -6.20444 53.013 -6.12174L53.0957 -6.03904C53.3438 -5.79093 53.5919 -5.79093 53.84 -5.95633L53.6746 -6.28714ZM32.0893 7.19334C31.345 7.27604 30.518 7.19334 29.8563 7.02794C30.3526 7.52415 29.8564 8.51658 29.9391 9.1782C30.1872 9.1782 30.3526 9.1782 30.6007 9.1782C31.0969 8.51658 31.9239 8.02036 32.0893 7.19334ZM22.2477 29.4403C22.4131 29.6057 22.4958 29.7711 22.4958 29.8538C22.5785 29.6057 22.5785 29.3576 22.4958 29.1922C22.9094 28.7787 23.6537 28.696 23.571 27.7862C23.9845 27.7035 24.0672 27.3727 24.2326 27.0419C23.9018 27.0419 23.4883 27.0419 23.0748 27.1246C23.0748 27.9516 23.0748 28.7787 22.2477 29.4403ZM26.7964 57.9726C26.7964 58.3034 26.8791 58.6342 27.0445 58.965C27.1272 59.0477 27.2926 59.1304 27.3753 59.1304C27.2099 58.6342 27.458 58.5515 27.6234 58.3861C27.2926 58.3861 27.2099 57.8899 26.7964 57.9726ZM29.3601 60.0401C29.3601 60.1228 29.2774 60.2883 29.1947 60.371C29.2774 60.4537 29.4428 60.4537 29.5255 60.5364C29.5255 60.4537 29.6082 60.371 29.6909 60.371C29.7736 60.371 29.7736 60.2882 29.7736 60.2055C29.6909 60.1228 29.6909 60.0401 29.3601 60.0401ZM28.8639 63.679C29.0293 64.0099 29.112 64.258 29.2774 64.5888C29.5255 64.3407 30.0218 64.258 30.2699 63.8445C29.8563 64.1753 29.1947 64.0926 28.8639 63.679ZM32.6682 65.7466C32.6682 65.8293 32.7509 65.8293 32.8336 65.8293C32.7509 65.7466 32.7509 65.7466 32.6682 65.7466ZM33.6607 69.0547C33.6607 68.972 33.6607 68.8893 33.6607 68.8066C33.578 68.7239 33.4126 68.7239 33.3298 68.6412C33.4953 68.8066 33.578 68.8893 33.6607 69.0547ZM44.8255 71.3704C45.4871 71.7839 45.9833 72.3628 46.066 73.1071C46.4795 72.859 47.0584 72.6109 47.1411 72.1147C46.4795 72.032 45.8179 71.6185 45.6525 71.0396C45.4044 71.0396 45.239 70.9569 45.0736 70.9569C44.9909 71.1223 44.9082 71.2877 44.8255 71.3704ZM49.953 67.318C50.0357 67.4834 50.2011 67.6488 50.3665 67.5661C50.2838 67.4007 50.2011 67.1526 49.953 67.318ZM49.7876 66.4082C50.2011 66.3255 50.6146 66.5736 50.8627 67.0698C50.8627 66.9871 50.8627 66.9871 50.8627 66.9044C50.3665 66.4082 50.1184 65.6639 50.2838 65.0023C50.2011 64.8369 49.953 64.9196 49.7876 64.8369C49.7049 64.8369 49.5395 64.8369 49.3741 64.8369C49.3741 64.4234 48.7952 64.3407 48.5471 64.5888C48.7125 64.8369 48.7952 65.0023 48.9606 65.2504C49.2087 65.5812 49.8703 65.8293 49.7876 66.4082ZM57.3135 67.8142C56.3211 67.2352 56.1557 68.8066 56.2384 69.2201C56.9 68.972 57.2308 68.3931 57.3135 67.8142ZM60.8697 69.7163C60.9524 69.799 61.1178 69.8817 61.2832 70.1298C61.4486 70.0471 61.614 70.0471 61.7795 69.9644C61.8622 70.1298 62.0276 70.2125 62.193 70.3779C62.2757 70.2125 62.6065 70.1298 62.7719 70.0471C62.7719 69.8817 62.7719 69.799 62.7719 69.7163C62.2757 69.7163 62.1103 69.1374 61.6141 68.8066C61.4486 69.1374 61.2832 69.3028 60.787 68.972V69.7163H60.8697ZM58.6368 83.9411C58.4714 83.9411 58.2233 84.0238 58.1406 84.1892C58.306 84.2719 58.3887 84.3546 58.4714 84.4373C58.6368 84.3546 58.7195 84.1065 58.6368 83.9411ZM99.7398 83.5276C99.9052 83.5276 99.9879 83.4449 99.6571 83.3622C99.6571 83.4449 99.7398 83.4449 99.7398 83.5276ZM107.018 81.3773V81.6255H107.266V81.5428C107.183 81.4601 107.183 81.4601 107.1 81.3773H107.018C107.018 81.2946 107.018 81.2946 107.018 81.3773ZM122.318 68.0623L122.4 68.3104L122.648 68.2277L122.566 67.9796L122.318 68.0623ZM131.415 62.025H131.58C131.58 61.9423 131.663 61.8596 131.663 61.7769H131.415V62.025ZM132.573 39.7781C132.903 39.6127 133.4 39.4473 133.317 39.1164C133.152 39.3646 132.821 39.53 132.573 39.7781ZM113.386 -3.72337C113.138 -3.97147 112.724 -4.13688 112.145 -4.30228C111.732 -4.30228 111.153 -4.13688 110.822 -3.88877C110.987 -3.88877 110.987 -3.80607 110.987 -3.64067C110.822 -3.64067 110.574 -3.55796 110.408 -3.47526C110.491 -3.39256 110.491 -3.39256 110.491 -3.30985C111.235 -3.14445 111.98 -2.89635 112.641 -2.56554C112.641 -3.06175 113.22 -3.30985 113.386 -3.72337ZM110.491 -5.12931C110.408 -5.12931 110.243 -5.12931 110.078 -5.12931C110.078 -4.9639 110.243 -4.8812 110.491 -4.8812V-5.12931ZM104.537 -5.87363C104.785 -5.87363 104.95 -6.03903 104.95 -6.28714C104.867 -6.20444 104.702 -6.20444 104.537 -6.20444C104.537 -6.12173 104.537 -5.95633 104.537 -5.87363ZM98.1685 -7.19687C98.1685 -7.36227 98.1685 -7.52768 98.0858 -7.69308C97.9204 -7.52768 97.9204 -7.36227 98.0858 -7.19687H98.1685ZM83.034 -14.8882L83.2821 -14.9709C83.2821 -15.0536 83.1994 -15.1363 83.1994 -15.219L82.9513 -15.1363C82.9513 -15.0536 83.034 -14.9709 83.034 -14.8882ZM66.907 -12.9033C66.907 -12.9033 66.907 -12.9033 66.8243 -12.8206C66.907 -12.8206 66.907 -12.8206 66.9897 -12.8206C66.9897 -12.8206 66.9897 -12.9033 66.907 -12.9033ZM67.4032 -10.5877H67.0724V-10.3396H67.4032V-10.5877ZM60.2081 -10.7531C60.5389 -10.505 60.6216 -11.1666 60.3735 -11.1666C60.3735 -11.0839 60.2908 -11.0012 60.2081 -11.0012V-10.7531ZM48.6298 0.246346C48.5471 0.0809408 48.3817 -0.00176267 48.1336 -0.084465C47.8028 0.329047 47.5547 0.742559 47.1411 1.15607C47.1411 1.23877 47.2238 1.40417 47.2238 1.40417C47.6374 1.48688 48.2163 1.15607 48.7125 1.15607C48.7952 1.15607 48.7952 1.15607 48.7952 1.15607C49.4568 0.907964 50.1184 0.494452 50.5319 -0.00176239C50.1184 -0.00176239 49.7876 -0.0844656 49.3741 -0.24987C49.0433 -0.0844656 48.8779 0.0809408 48.6298 0.246346ZM41.1866 0.411751C41.352 0.329048 41.6001 0.246345 41.6001 0.0809402C41.4347 0.163643 41.2693 0.246346 41.1866 0.411751ZM26.4656 4.21606C26.5483 4.21606 26.631 4.21606 26.7137 4.13336L26.4656 4.21606C26.5483 4.21606 26.5483 4.21606 26.4656 4.21606ZM34.7358 73.4379C34.5704 73.9341 34.4877 74.3476 34.405 74.8439C35.0666 74.9266 35.5628 75.3401 36.1417 75.5055C36.059 74.513 35.3974 74.0168 34.7358 73.4379ZM35.5628 72.6936C35.7282 72.7763 36.7206 72.6936 36.7206 72.3628C36.4725 72.1974 35.5628 72.3628 35.5628 72.6936ZM35.4801 70.7915C35.8936 71.0396 36.3071 71.205 36.7206 71.3704C36.4725 70.8741 36.059 70.5433 35.5628 70.2125C35.5628 70.3779 35.4801 70.626 35.4801 70.7915ZM38.1266 75.092C37.8785 75.3401 37.5477 75.5882 37.6304 76.0844C38.292 76.3325 38.292 75.5882 38.1266 75.092ZM38.9536 75.092C39.0363 75.1747 39.0363 75.1747 39.119 75.1747C39.119 75.1747 39.0363 75.092 38.9536 75.092ZM41.352 72.032C41.352 72.1974 41.5174 72.4455 41.6001 72.5282C41.6828 72.2801 41.6828 72.032 41.5174 71.8666C41.4347 71.9493 41.4347 71.9493 41.352 72.032ZM42.9233 73.4379C43.0887 73.1898 43.2541 73.1898 43.3368 73.2725C43.2541 72.9417 43.2541 72.6109 43.3368 72.2801C42.9233 72.3628 43.0887 71.9493 42.6752 72.032C42.4271 72.2801 42.3444 72.6109 42.2617 72.9417C42.5098 73.0244 42.7579 73.1898 42.9233 73.4379ZM49.953 77.0768V77.3249H50.2011V77.1595L50.1184 77.0768H49.953ZM54.7498 70.0471C54.9152 70.1298 55.0806 70.1298 55.1633 70.2125C55.1633 70.0471 55.0806 69.9644 54.7498 70.0471ZM57.4789 89.1514C57.4789 89.2341 57.5616 89.2341 57.5616 89.2341L57.4789 89.1514ZM61.1178 95.1059C61.1178 95.1059 61.0351 95.0232 60.9524 94.9405C61.0351 95.0232 61.1178 95.0232 61.1178 95.1059ZM61.3659 95.6022L61.6141 95.5195L61.5313 95.2713L61.2832 95.354C61.2832 95.4368 61.3659 95.5195 61.3659 95.6022ZM64.2605 92.6249C64.2605 92.7076 64.2605 92.7903 64.3432 92.7903C64.4259 92.7903 64.4259 92.7076 64.5086 92.7076C64.4259 92.6249 64.3432 92.6249 64.2605 92.6249ZM94.3642 85.5125C94.4469 85.4298 94.6123 85.2644 94.695 85.099C94.6123 84.7682 94.5296 84.4373 94.695 84.2719C94.0334 83.8584 93.2063 83.5276 92.5447 83.1141C92.1312 83.4449 91.7177 83.6103 91.2215 83.693C90.9734 84.2719 90.7253 84.8509 90.3945 85.3471C90.5599 85.5125 90.6426 85.7606 90.6426 86.0087C91.8004 86.4222 93.2063 85.5952 94.3642 85.5125ZM106.273 82.7006C106.439 82.7006 106.604 82.6179 106.687 82.5352C106.77 82.2044 106.77 81.9563 106.687 81.6255C106.521 81.7082 106.273 81.6255 106.273 81.7909C106.77 82.1217 105.777 82.2044 105.694 82.4525C105.694 82.6179 106.273 82.4525 106.273 82.7006ZM109.499 74.0168C109.581 74.0168 109.581 74.0168 109.499 74.0168ZM111.318 75.3401C111.235 75.4228 111.235 75.5055 111.153 75.6709C111.401 75.6709 111.732 75.1747 111.401 75.2574C111.401 75.2574 111.401 75.2574 111.318 75.3401ZM135.302 56.0704C135.385 56.1531 135.467 56.1531 135.467 56.1531C135.467 56.0704 135.385 56.0704 135.302 56.0704ZM121.077 5.20849C121.408 4.79498 121.656 4.38146 121.739 3.88525C121.16 4.21606 120.498 4.46417 119.837 4.54687C120.167 4.87768 120.664 5.12579 121.077 5.20849ZM112.145 -7.61038C112.145 -7.61038 112.228 -7.69308 112.311 -7.61038C112.062 -7.77578 111.98 -8.10659 111.484 -8.02389C111.732 -7.85848 111.897 -7.77578 112.145 -7.61038ZM100.732 -11.8282C100.65 -11.8282 100.65 -11.8282 100.65 -11.7455C100.65 -11.6628 100.732 -11.5801 100.815 -11.5801C100.732 -11.6628 100.732 -11.7455 100.732 -11.8282ZM83.3648 -14.8055C83.4475 -14.8055 83.5302 -14.8882 83.6956 -14.9709C83.6129 -14.9709 83.4475 -14.9709 83.3648 -14.8882V-14.8055ZM79.2297 -15.7152C78.9815 -16.046 78.6507 -16.2941 78.0718 -16.2941C78.4026 -15.6325 78.8161 -15.0536 79.4778 -14.6401C79.3951 -14.9709 79.3124 -15.3844 79.2297 -15.7152ZM75.5908 -15.3017C76.087 -15.3844 75.9216 -15.9633 75.508 -15.7979C75.5908 -15.5498 75.2599 -15.4671 75.5908 -15.3017ZM74.681 -15.3017L74.9291 -15.3844L74.8464 -15.6325L74.5983 -15.5498L74.681 -15.3017ZM41.5174 -7.11416C41.6001 -6.78335 41.8482 -6.78335 42.179 -6.94876C42.0136 -7.19687 41.6828 -7.44497 41.5174 -7.11416ZM27.0445 1.90039C26.9618 1.90039 26.8791 1.90039 26.7964 1.81769V1.90039H27.0445ZM8.35374 30.9289C8.35374 31.2597 8.27104 31.5078 8.18833 31.8386C8.27104 32.0868 8.35374 32.4176 8.43644 32.7484C8.76725 32.6657 8.60185 32.4176 9.01536 32.4176L8.68455 31.4251L9.26346 31.2597C9.18076 31.0116 9.09806 30.8462 9.01536 30.5981C8.76725 30.7635 8.60185 30.8462 8.35374 30.9289ZM14.3083 63.1828C14.5564 63.7618 14.9699 64.3407 15.5488 64.6715C15.7142 64.3407 15.8797 64.0099 15.9624 63.5964C15.5488 63.3482 15.1353 63.0174 14.7218 62.6866C14.5564 62.852 14.391 63.0174 14.3083 63.1828ZM18.4434 68.5585C18.9396 68.6412 19.105 69.0547 19.5186 69.5509C19.684 69.5509 19.7667 69.5509 19.9321 69.5509C19.8494 69.1374 19.5186 69.3028 19.5186 68.8893C19.7667 68.8893 19.7667 68.7239 19.684 68.5585C19.6013 68.4758 19.5186 68.3931 19.5186 68.3104C19.105 68.3104 18.6915 68.2277 18.278 68.0623C18.3607 68.2277 18.4434 68.3931 18.4434 68.5585ZM19.684 69.9644C19.684 70.0471 19.7667 70.1298 19.8494 70.1298H19.9321L19.8494 69.8817L19.684 69.9644ZM21.338 63.2655C21.4207 63.7618 21.5034 64.258 21.7515 64.6715C21.9996 64.3407 22.0823 63.9272 21.9996 63.5964C21.8342 63.4309 21.5861 63.2655 21.338 63.2655ZM48.6298 77.6557C48.7952 77.7384 48.8779 77.7384 48.9606 77.8212C48.9606 77.6557 48.8779 77.5731 48.7952 77.4903C48.7125 77.5731 48.7125 77.573 48.6298 77.6557ZM52.7649 78.3174C52.5168 78.4828 52.3514 78.6482 52.186 78.7309C52.5168 78.8963 52.8476 78.979 53.3438 79.0617C53.0957 78.8136 52.9303 78.5655 52.7649 78.3174ZM55.4114 81.9563C55.1633 81.9563 54.9152 81.9563 54.9979 82.2044C55.1633 82.2044 55.3287 82.1217 55.4114 81.9563ZM54.2535 89.7303H54.3362C54.3362 89.6476 54.3362 89.4822 54.2535 89.4822C54.2535 89.4822 54.2535 89.5649 54.1708 89.5649C54.2535 89.6476 54.2535 89.6476 54.2535 89.7303ZM62.5238 96.1811C62.9373 96.1811 63.847 96.4292 63.5989 95.6022C63.02 96.0984 62.9373 95.5195 62.193 95.6022C62.1103 95.933 62.5238 95.7676 62.5238 96.1811ZM66.9897 98.0005C67.0724 98.0005 67.1551 98.0832 67.2378 98.1659C67.2378 97.9178 67.3205 97.6697 66.9897 97.7524V98.0005ZM85.4323 93.8654C85.5977 93.8654 85.6804 93.7827 85.9285 93.7C85.7631 93.5346 85.6804 93.3692 85.7631 93.1211C85.515 93.1211 85.2669 93.1211 85.0188 93.2038C85.2669 93.2865 85.515 93.4519 85.4323 93.8654ZM94.1988 97.7524C94.1988 97.6697 94.1988 97.587 94.2815 97.3389C93.868 97.2562 93.868 97.587 93.4545 97.5043C93.5372 97.0908 93.1236 97.2562 92.8755 97.2562C92.7101 97.7524 92.462 98.0832 92.1312 98.414C92.6274 98.6621 92.9582 98.2486 93.1236 97.8351C93.3717 97.8351 93.7853 97.8351 94.1988 97.7524ZM104.785 92.2941V92.7076H105.033C105.033 92.6249 105.198 92.5422 105.198 92.4595C105.033 92.3768 105.033 92.2941 104.785 92.2941ZM112.311 79.6406C112.807 79.3098 113.303 78.8963 113.717 78.4828C113.468 78.4828 113.303 78.4001 113.055 78.3174C112.724 78.7309 112.476 79.1444 112.311 79.6406ZM122.566 73.4379C122.069 73.5206 122.152 73.8514 122.152 74.0995C122.318 74.0995 122.566 73.9341 122.731 73.7687L122.566 73.4379ZM128.686 84.3546C128.768 84.9335 127.941 84.6854 128.024 85.2644H129.182C129.099 85.0163 129.265 84.4373 128.686 84.3546ZM130.174 75.6709C130.257 75.5882 130.174 75.5055 130.174 75.4228V75.6709ZM140.76 56.4012C140.595 56.4012 140.512 56.2358 140.347 56.4012L140.429 56.6494C140.678 56.7321 140.76 56.6493 140.76 56.4012ZM142.414 17.0349C142.332 17.1176 142.083 17.1176 142.083 17.283C142.166 17.283 142.249 17.283 142.249 17.3657C142.414 17.283 142.58 17.2003 142.414 17.0349ZM143.407 26.7111C143.407 26.7938 143.407 26.9592 143.407 27.0419C143.489 27.0419 143.572 27.0419 143.572 27.0419C143.489 26.8765 143.489 26.7938 143.407 26.7111ZM145.722 27.3727L145.805 27.5381C145.805 27.4554 145.888 27.3727 145.97 27.29L145.722 27.3727ZM145.557 26.7938L145.309 26.8765C145.309 26.9592 145.392 27.0419 145.392 27.1246L145.64 27.0419L145.557 26.7938ZM145.143 47.4694H145.309C145.392 47.304 145.474 46.9732 145.061 47.0559C145.143 47.1386 145.061 47.3867 145.143 47.4694ZM146.053 38.0413C146.053 38.0413 146.053 38.0413 146.053 37.9586H145.888C145.97 37.9586 145.97 38.0413 146.053 38.0413ZM145.888 35.8911V35.643H145.557V35.8911H145.888ZM144.895 54.1683C144.813 54.7472 144.73 55.2434 144.647 55.7396C144.647 55.8223 144.647 55.905 144.647 55.9877C144.895 55.905 145.226 55.8223 145.309 56.1531C146.384 55.7396 145.143 54.9953 145.722 54.4164C145.392 54.4164 145.226 54.1683 144.895 54.1683ZM145.392 35.2294C146.219 35.1467 147.046 34.5678 147.376 33.6581C147.046 33.3273 146.797 32.9965 146.549 32.583C145.061 33.4927 144.895 34.9813 143.986 36.2219C144.234 36.2219 144.482 36.2219 144.73 36.3046C145.061 35.7257 144.895 35.5602 145.392 35.2294ZM145.143 26.3803C145.143 26.0495 144.978 25.636 144.73 25.3879C144.399 25.1398 144.399 24.6435 143.903 24.5608L143.82 24.6435C143.903 25.3879 144.399 26.1322 145.143 26.3803ZM143.324 32.1695C143.159 32.1695 143.076 32.1695 142.993 32.1695C143.076 32.3349 143.076 32.4176 143.159 32.583C143.241 32.4176 143.241 32.3349 143.324 32.1695ZM135.302 18.689C134.309 18.4409 133.813 21.0873 133.152 21.749C133.317 21.9971 133.565 22.2452 133.813 22.4106C134.227 21.9971 134.806 21.6663 135.302 21.3354C135.302 21.17 135.302 21.0046 135.219 20.8392C135.633 20.6738 135.963 20.1776 135.881 19.6814C135.881 19.516 135.219 18.689 135.302 18.689ZM133.4 17.6965C133.565 17.5311 133.813 17.4484 133.73 17.0349C133.234 17.0349 133.234 17.3657 133.152 17.6965C133.317 17.6965 133.482 18.1928 133.565 17.8619C133.482 17.7792 133.4 17.7792 133.4 17.6965ZM131.498 12.6517C131.58 12.569 131.58 12.4863 131.498 12.4863C131.498 12.4863 131.498 12.569 131.498 12.6517ZM112.145 -14.8882C112.145 -14.8055 112.145 -14.7228 112.145 -14.5574L112.228 -14.4747C112.228 -14.5574 112.228 -14.5574 112.311 -14.5574C112.393 -14.7228 112.476 -14.8882 112.145 -14.8882ZM110.408 -15.3017V-15.4671H110.326L110.408 -15.3017ZM109.995 -14.6401C109.995 -14.6401 109.995 -14.5574 110.078 -14.4747C110.16 -14.5574 110.16 -14.5574 110.16 -14.6401C110.078 -14.6401 110.078 -14.6401 109.995 -14.6401ZM110.491 -17.8655C110.408 -17.9482 110.243 -18.0309 110.16 -18.1136C110.16 -18.1136 110.078 -18.0309 109.995 -18.0309C109.995 -17.9482 110.078 -17.7828 110.078 -17.7001C110.243 -17.7001 110.408 -17.7828 110.491 -17.8655ZM73.6059 -21.5871L73.2751 -21.5044V-21.4217C73.2751 -21.339 73.3578 -21.339 73.3578 -21.339C73.5232 -21.339 73.6059 -21.4217 73.7713 -21.4217V-21.5044C73.6886 -21.5044 73.6059 -21.5044 73.6059 -21.5871ZM58.306 -14.8055C58.2233 -14.8055 58.2233 -14.8055 58.2233 -14.8055C58.2233 -14.7228 58.2233 -14.7228 58.2233 -14.6401C58.2233 -14.7228 58.306 -14.7228 58.306 -14.8055ZM53.84 -13.2341C53.1784 -13.1514 52.4341 -12.986 51.8552 -12.8206C51.6071 -12.7379 51.359 -12.4898 51.359 -12.159C52.3514 -11.8282 53.4265 -11.6628 54.5016 -11.5801C54.8325 -11.9109 55.1633 -12.159 55.6595 -12.2417C55.5768 -12.4071 55.4114 -12.5725 55.4941 -12.8206L55.5768 -12.9033C54.8325 -12.9033 54.3362 -12.8206 53.84 -13.2341ZM48.6298 -9.01632C48.5471 -8.93362 48.5471 -9.01632 48.4644 -9.01632C48.4644 -9.01632 48.3817 -8.93361 48.3817 -8.85091C48.4644 -8.85091 48.6298 -8.93362 48.6298 -9.01632ZM44.6601 -10.0087C44.8255 -10.0087 44.9082 -10.0914 44.9909 -10.1742C44.9082 -10.1742 44.7428 -10.0914 44.6601 -10.0087ZM39.119 -11.332C40.1114 -12.0763 40.8558 -13.0687 41.352 -14.2266C41.1866 -13.9785 41.0212 -13.8131 40.7731 -13.7304C40.0287 -13.3168 40.1941 -13.3168 39.7806 -12.9033C39.3671 -12.4071 38.4574 -11.9936 38.6228 -11.4974C38.8709 -11.332 38.9536 -11.332 39.119 -11.332ZM28.9466 -11.0839C29.112 -11.2493 29.2774 -11.332 29.3601 -11.4974C29.0293 -11.4974 28.9466 -11.2493 28.8639 -11.0012L28.9466 -11.0839ZM22.4131 -4.46769C23.0748 -4.38499 22.2477 -3.72337 22.4131 -4.46769ZM10.3386 12.7344C10.3386 12.569 10.504 12.3209 10.2559 12.4036V12.8998L10.3386 12.7344ZM25.5558 72.859C26.8791 72.5282 26.7964 71.6185 26.8791 70.7087C26.7964 70.7087 26.7137 70.626 26.7137 70.626L26.052 70.7915C25.7212 70.2125 24.8942 70.4606 24.5634 70.0471C24.398 70.2952 24.3153 70.5433 24.3153 70.7915C24.8942 71.2877 25.3077 72.032 25.5558 72.859ZM29.8563 77.2422C29.9391 77.9039 30.518 78.3174 31.2623 78.7309C31.2623 78.4001 31.345 77.9866 31.345 77.6557C30.7661 77.6557 30.2699 77.4903 29.8563 77.2422ZM38.4574 80.7984C38.2093 81.212 38.5401 81.4601 38.3747 82.039C40.1114 82.1217 41.6001 83.1141 43.1714 83.2795C42.179 82.7833 41.0212 82.5352 40.525 81.7082C40.3596 81.7909 40.1114 81.7909 39.8633 81.7082C39.6979 81.1292 39.0363 81.0465 38.4574 80.7984ZM50.3665 80.3022C50.2838 80.5503 50.2011 80.8811 50.1184 81.1292C50.4492 81.2946 50.6973 81.3774 51.1109 81.5428C51.1109 81.4601 51.1936 81.3773 51.359 81.3773C52.4341 82.1217 53.5919 82.6179 54.8325 82.866C54.8325 82.4525 54.7498 82.039 54.5844 81.6255C53.7573 81.2947 52.8476 81.0465 52.0206 80.8811C52.3514 80.7984 52.186 80.5503 52.5995 80.5503C53.0957 80.7157 53.6746 80.633 54.0881 80.3849C54.0054 80.3022 54.0054 80.1368 53.9227 80.0541C53.1784 80.2195 51.9379 79.8887 51.6898 80.7984C51.2763 80.633 51.7725 80.4676 51.6071 80.1368C51.1936 80.1368 51.359 80.4676 51.1936 80.5503C50.78 80.4676 50.6146 80.3849 50.3665 80.3022ZM50.6973 84.3546C50.6146 84.6854 50.6973 84.9335 50.8627 85.2644C50.9454 85.1817 50.9455 85.1817 51.0282 85.1817C51.1936 86.0087 52.186 85.5125 52.6822 85.8433C52.8476 85.6779 52.8476 85.4298 52.8476 85.2644C51.9379 85.1817 51.6898 84.4373 50.6973 84.3546ZM63.9297 96.1811C64.2605 96.76 64.9221 96.9254 65.4184 97.2562C65.5011 97.1735 65.5838 97.1735 65.6665 97.1735C65.6665 97.0908 65.7492 97.0081 65.7492 96.9254C65.5011 96.8427 65.3357 96.76 65.0875 96.6773C64.9221 96.0984 64.5086 96.1811 63.9297 96.1811ZM94.695 97.6697C94.695 97.6697 94.7777 97.6697 94.8604 97.6697H94.695ZM95.9355 93.7827C95.8528 93.9481 95.8528 94.1962 95.8528 94.4443C97.2588 94.3616 98.0858 94.0308 99.2436 94.6097C99.1609 94.4443 99.409 94.4443 99.5744 94.3616L99.409 93.8654C98.3339 94.1962 98.0858 93.0384 97.4242 92.7076C97.3415 92.7076 97.2588 92.7903 97.1761 92.7903C96.7626 93.0384 96.7625 93.6173 96.0182 93.7L95.9355 93.7827ZM105.694 91.467C106.108 91.5497 106.521 91.5497 107.018 91.3016C106.852 91.0535 106.687 90.8881 106.521 90.64C106.356 90.9708 106.108 91.3016 105.694 91.467ZM110.243 88.8206C110.078 89.0687 109.747 89.3168 109.995 89.6476C110.16 89.6476 110.243 89.6476 110.408 89.6476C109.995 88.9033 111.07 89.3168 110.987 88.5725C110.739 88.7379 110.491 88.7379 110.243 88.8206ZM111.98 86.5049C112.062 86.4222 112.145 86.2568 112.062 86.1741C111.897 86.1741 111.814 86.2568 111.732 86.3395C111.814 86.3395 111.897 86.4222 111.98 86.5049ZM139.189 11.742C139.272 11.4112 139.189 11.3285 138.858 11.3285V11.742H139.189ZM137.452 10.0052C137.618 9.75712 137.783 9.59171 137.866 9.4263C137.535 8.84739 137.121 8.26847 136.377 8.18577C136.708 8.68198 136.542 8.84739 136.625 9.34361C137.039 9.0955 136.956 9.67441 137.204 9.67441C137.369 9.75711 137.369 9.92252 137.452 10.0052ZM136.377 0.329048C136.294 0.329048 136.212 0.329048 136.046 0.163643C136.129 0.329048 136.129 0.411751 136.212 0.494453C136.294 0.494453 136.294 0.411751 136.377 0.329048ZM132.407 -4.7985C132.325 -4.7158 132.242 -4.7985 132.159 -4.7985C132.242 -4.7985 132.325 -4.7985 132.407 -4.7985C132.407 -4.7158 132.407 -4.7158 132.407 -4.7985ZM121.408 -16.4595C121.408 -16.2941 121.573 -16.2114 121.573 -16.046L121.821 -16.1287L121.656 -16.4595C121.573 -16.4595 121.491 -16.4595 121.408 -16.4595ZM122.318 -15.6325L122.566 -15.7152L122.483 -15.9633L122.235 -15.8806L122.318 -15.6325ZM121.573 -17.6174C121.904 -17.8655 121.987 -17.5347 122.318 -17.7001C122.318 -18.1136 121.491 -18.0309 121.573 -17.6174ZM121.573 -18.6098C121.491 -18.6925 121.491 -18.6925 121.573 -18.6098C120.912 -18.9406 120.085 -19.106 119.506 -19.106C119.671 -18.6925 119.506 -18.4444 119.588 -18.0309C120.085 -17.8655 120.829 -18.3617 121.077 -18.6098C121.408 -18.6098 121.573 -18.0309 122.069 -18.1136C121.821 -18.279 121.739 -18.4444 121.573 -18.6098ZM119.754 -12.6552C119.588 -13.6477 118.431 -12.9033 118.017 -13.5649C117.852 -13.2341 117.438 -13.1514 117.438 -12.6552C118.1 -12.5725 118.596 -12.2417 119.34 -12.159C119.423 -12.4071 119.423 -12.6552 119.754 -12.6552ZM112.393 -21.0082C112.393 -20.9255 112.145 -20.7601 112.393 -20.5946C112.393 -20.7601 112.641 -20.9255 112.393 -21.0082ZM110.491 -21.9179V-22.3314H110.078C110.078 -22.0006 110.16 -21.9179 110.491 -21.9179ZM109.003 -22.3314C109.416 -22.166 109.416 -22.9103 109.003 -22.7449V-22.3314ZM105.694 -25.226C105.694 -25.3914 105.777 -25.4741 105.694 -25.5568L105.281 -25.4741L105.364 -25.226C105.529 -25.3087 105.612 -25.226 105.694 -25.226ZM101.477 -25.6395C102.304 -25.5568 103.213 -25.4741 103.875 -25.3914C103.627 -25.4741 103.461 -25.5568 103.296 -25.7222C102.138 -25.226 101.973 -26.3011 101.063 -26.2184C101.063 -26.1357 101.063 -26.1357 101.063 -26.1357C101.146 -26.1357 101.146 -26.053 101.228 -25.9703C101.311 -25.8876 101.477 -25.8876 101.477 -25.6395ZM96.1836 -20.5119L96.4317 -20.5946L96.349 -20.8428L96.1009 -20.7601L96.1836 -20.5119ZM88.8231 -26.5492C88.8231 -26.7146 89.1539 -26.6319 89.0712 -26.9627H88.6577C88.7404 -26.7973 88.6577 -26.5492 88.8231 -26.5492ZM74.0194 -27.0454C74.1848 -26.88 74.5156 -26.88 74.5983 -27.2108C74.4329 -27.3762 74.0194 -27.3762 74.0194 -27.0454ZM74.2675 -26.6319C74.0194 -26.7146 73.7713 -26.5492 73.6886 -26.3011C73.854 -26.3838 74.1021 -26.4665 74.2675 -26.5492V-26.6319ZM63.4335 -24.0681C63.5162 -23.9854 63.6816 -23.9854 63.7643 -23.9854C63.6816 -23.9854 63.5989 -23.9854 63.5989 -24.0681C63.5162 -24.0681 63.5162 -24.0681 63.4335 -24.0681ZM42.9233 -11.9109C43.006 -11.9936 43.006 -12.0763 43.0887 -12.0763H42.9233V-11.9109ZM35.8936 -16.2114C35.8109 -16.1287 35.7282 -16.1287 35.6455 -16.1287V-15.9633C35.7282 -16.046 35.8109 -16.1287 35.8936 -16.2114ZM24.3153 -8.3547C24.0672 -7.77578 23.7364 -7.36227 23.2402 -7.03146C23.4883 -7.03146 23.8191 -7.03146 24.0672 -7.19687C24.6461 -6.36984 25.0596 -7.52768 25.9693 -7.36227C26.5483 -8.18929 27.458 -8.76821 27.8715 -9.59524C27.9542 -9.76064 27.7061 -10.0914 28.1196 -10.1742C28.2023 -10.0914 28.285 -10.0087 28.285 -10.1742C28.0369 -10.0914 28.2023 -10.4223 28.4504 -10.6704C27.6234 -10.7531 27.7061 -10.0914 26.7137 -10.1742C26.2174 -9.34713 25.3077 -8.76821 24.3153 -8.3547ZM18.1126 -1.07689C17.9472 -1.2423 17.5337 -1.15959 17.5337 -0.828785C17.8645 -0.746083 18.1126 -0.828788 18.1126 -1.07689ZM17.2856 -0.497978C17.2029 -0.332574 17.1202 -0.249869 17.1202 -0.00176239H17.5337C17.5337 -0.249869 17.6991 -0.663383 17.2856 -0.497978ZM19.3532 1.40417C18.1953 1.23877 17.7818 2.81012 16.7067 3.05822C16.7067 3.38903 16.5413 3.63714 16.2932 3.88525C16.4586 3.88525 16.5413 3.88525 16.7067 3.88525C16.7067 3.88525 16.7067 3.80255 16.7067 3.71984C17.8645 3.71984 17.3683 2.47931 18.8569 2.81012C19.0223 2.56201 19.105 2.39661 19.1877 2.2312C19.1877 1.98309 19.1877 1.65228 19.3532 1.40417ZM14.5564 6.36632C14.3083 6.11821 13.9775 6.03551 13.564 6.03551V6.53172C13.1505 6.94523 11.9926 7.11064 11.4964 7.68956C11.4137 7.85496 11.4964 8.26847 11.2483 8.59928C11.0002 9.01279 10.504 9.3436 10.2559 9.75711C10.3386 9.83982 10.4213 9.83982 10.504 9.92252C10.4213 9.92252 10.3386 9.92252 10.2559 9.92252C10.2559 10.0879 10.2559 10.2533 10.3386 10.4187C9.18076 10.9149 10.4213 11.8247 10.504 12.569C11.2483 11.8247 12.0753 10.9977 12.6543 10.0879C13.1505 10.0052 12.9851 9.50901 13.6467 9.4263C13.8121 9.2609 13.4813 8.93009 13.7294 8.84739C14.8045 8.59928 14.4737 7.19334 15.5488 7.52415C15.4661 7.02794 15.3834 6.77983 16.0451 6.53172C16.0451 6.44902 16.0451 6.44902 16.0451 6.36632L15.9624 6.11821C15.4661 6.11821 14.9699 5.95281 14.5564 6.36632ZM8.02293 55.4915C7.36131 55.6569 7.94023 56.2358 8.18833 56.4012C8.18833 56.3185 8.18833 56.1531 8.18833 56.0704C8.18833 55.905 8.10563 55.6569 8.02293 55.4915ZM8.02293 57.1456C8.10563 57.2283 8.18833 57.2283 8.18833 57.2283C8.10563 57.1456 8.10563 56.9802 8.02293 56.8975C8.02293 56.9802 8.02293 57.0629 8.02293 57.1456ZM9.01536 58.7996C9.09806 59.1304 8.76725 59.2958 8.93266 59.6266C9.01536 59.6266 9.18076 59.7093 9.26346 59.792C10.0905 59.5439 9.42887 58.965 9.01536 58.7996ZM10.1732 62.1077H9.92508C10.1732 62.5212 10.3386 62.852 10.5867 63.1828C10.5867 63.0174 10.5867 62.852 10.6694 62.7693C10.2559 62.7693 10.1732 62.5212 10.0078 62.2731C10.0905 62.2731 10.0905 62.1904 10.1732 62.1077ZM11.9926 65.085C11.9926 65.3331 11.6618 65.0023 11.4137 64.5061C11.4964 64.9196 11.4964 65.2504 11.4964 65.6639C11.9099 65.912 11.9099 65.6639 12.5716 65.6639V65.5812C12.4062 65.4985 12.158 65.4985 12.0753 65.4158C12.0753 65.4158 11.9926 65.4158 11.9099 65.3331C11.9099 65.2504 11.9926 65.1677 11.9926 65.085ZM35.3147 91.7151C35.3147 92.046 35.3974 92.2114 35.5628 92.2114C35.6455 92.046 35.8109 91.9633 35.7282 91.7151H35.3147ZM35.7282 91.467C35.7282 91.3843 35.6455 91.3843 35.5628 91.3016C35.6455 91.3843 35.6455 91.467 35.7282 91.467ZM38.3747 94.6097C38.2093 94.2789 37.8785 94.0308 37.5477 93.9481C37.6304 94.1962 37.465 94.4443 37.7131 94.7751C37.8785 94.6097 38.1266 94.527 38.3747 94.6097ZM58.8022 101.888C58.8022 102.053 58.7195 102.218 58.7195 102.301C59.2984 102.218 59.7946 102.632 60.2081 102.301C60.2081 102.466 60.2908 102.632 60.3735 102.715C60.787 102.715 61.2005 102.715 61.6968 102.632C60.787 102.136 59.6292 102.218 58.8022 101.888ZM62.8546 101.97C62.5238 102.218 62.193 102.384 61.7795 102.549C62.1103 102.466 62.6065 102.218 62.8546 101.97ZM121.491 91.3843C121.408 91.3843 121.408 91.3843 121.491 91.3843ZM133.73 75.092C133.813 75.092 133.979 75.092 134.144 75.0093C134.144 75.0093 134.144 75.0093 134.144 74.9266C134.061 74.9266 133.896 75.0093 133.73 75.092ZM137.204 67.8969C137.039 67.9796 136.873 68.145 136.79 68.3931C136.956 68.2277 137.121 68.0623 137.204 67.8969ZM140.595 64.5061C140.264 65.085 139.85 65.5812 139.272 66.0774L140.099 66.1601V66.0774C140.347 65.6639 141.339 64.8369 140.595 64.5061ZM147.046 59.2958C147.211 59.792 146.301 59.3785 147.046 59.2958ZM147.376 51.3564C147.294 51.6045 147.542 51.6045 147.707 51.5218C147.79 51.5218 147.79 51.4391 147.79 51.4391C147.707 51.3564 147.707 51.3564 147.624 51.2737L147.376 51.3564ZM152.421 44.3267C152.421 44.244 152.339 44.244 152.256 44.244C152.256 44.3267 152.339 44.3267 152.421 44.3267ZM153.083 50.1986C153.083 49.9505 153.248 49.7023 153.496 49.4542C153.414 49.3715 153.414 49.3715 153.414 49.2888C153.331 49.2061 153.166 49.2061 153.083 49.2061C153 49.3715 152.917 49.6196 152.835 49.8678C152.752 50.0332 152.835 50.1986 153.083 50.1986ZM153.331 36.7181C153.414 36.8835 153.414 37.0489 153.496 37.2143C153.579 37.2143 153.744 37.2143 153.827 37.2143C153.827 36.9662 153.662 36.9662 153.662 36.7181H153.331ZM110.987 -22.3314C110.822 -21.9179 111.484 -21.8352 111.732 -22.166C111.566 -22.2487 111.484 -22.3314 111.318 -22.4141C111.318 -22.3314 111.07 -22.3314 110.987 -22.3314ZM87.0864 -29.113C87.0037 -29.113 86.8383 -29.113 86.8383 -29.113H87.0864ZM79.4778 -28.7822C79.2297 -28.9476 78.9815 -29.0303 78.7334 -28.9476C78.4026 -28.6168 77.9891 -28.4514 77.4929 -28.4514C77.5756 -28.3687 77.741 -28.286 77.741 -28.1206C78.0718 -28.6168 79.3951 -28.1206 79.4778 -28.7822ZM67.8994 -25.8876C67.4032 -25.6395 66.8243 -25.4741 66.3281 -25.3087C66.9897 -25.226 67.8167 -25.0606 68.4783 -24.7298C68.6438 -24.8125 68.7265 -24.9779 68.8919 -25.0606C68.8092 -25.6395 68.3129 -25.7222 67.8994 -25.8876ZM57.5616 -22.5795C57.5616 -22.6622 57.4789 -22.8276 57.3135 -22.9103C56.9827 -22.8276 56.7346 -22.6622 56.4865 -22.4141C56.7346 -22.4968 57.2308 -22.5795 57.5616 -22.5795ZM20.0148 -5.12931V-4.7158H20.2629C20.2629 -4.7985 20.4283 -4.8812 20.4283 -4.9639C20.2629 -5.0466 20.2629 -5.12931 20.0148 -5.12931ZM9.42887 3.38903C9.34617 3.14093 9.34617 2.89282 9.01536 2.81012C8.76725 3.05822 8.60185 3.38904 8.51915 3.71984C8.76725 3.80255 9.18076 3.55444 9.42887 3.38903ZM7.0305 53.424C7.0305 52.9277 6.8651 52.4315 6.69969 51.9353C6.69969 52.1007 6.61699 52.2661 6.53429 52.3488C6.78239 52.6796 6.9478 53.0104 7.0305 53.424ZM3.63971 13.4787C3.63971 13.396 3.63971 13.2306 3.557 13.1479C3.557 13.3133 3.557 13.396 3.4743 13.4787C3.557 13.4787 3.557 13.4787 3.63971 13.4787ZM7.19591 54.251C7.19591 54.4991 7.19591 54.6645 7.27861 54.9126C7.36131 54.9126 7.36131 54.9953 7.44401 54.9953C7.60942 54.7472 7.36131 54.4991 7.19591 54.251ZM21.5861 81.46C21.6688 81.5427 21.7515 81.6255 21.8342 81.7082C22.0823 81.6255 22.2477 81.4601 22.2477 81.3773C22.0823 81.2946 21.8342 81.3773 21.5861 81.46ZM26.631 85.926C27.6234 85.8433 28.1196 86.6703 28.6158 87.58C28.9466 87.8281 29.3601 88.0762 29.7736 88.4071C30.0218 88.4071 30.1045 88.5725 30.2699 88.8206C30.4353 88.986 30.6007 89.1514 30.7661 89.3995C31.1796 89.5649 31.5104 89.3995 31.5931 89.813C31.6758 89.9784 31.7585 90.2265 31.8412 90.4746C32.0066 90.1438 32.3374 90.7227 32.6682 90.64C31.2623 88.4071 30.3526 86.3395 28.6985 84.6027C28.6985 84.1065 28.2023 84.1065 28.285 83.6103C28.2023 83.4449 27.7061 83.6103 27.7061 83.3622C27.7061 82.3698 26.2174 82.2044 26.7137 81.46L26.631 81.3773C26.2174 81.2946 25.9693 81.2946 25.8866 80.633H25.4731C25.3904 81.1292 25.0596 81.4601 25.3077 81.9563C24.7288 82.2044 24.6461 82.866 24.4807 83.5276C24.6461 83.4449 24.6461 83.1968 24.9769 83.1968C25.3077 84.52 26.3829 84.6027 26.631 85.926ZM47.5547 94.8578L47.6374 94.9405C47.6374 94.8578 47.6374 94.8578 47.6374 94.8578H47.5547ZM103.296 99.9854C102.8 99.9854 102.8 100.233 102.965 100.564C103.131 100.564 103.296 100.564 103.461 100.482L103.296 99.9854ZM104.206 99.82H104.371C104.702 99.82 105.115 99.6546 105.033 99.3238C104.619 99.3238 104.288 99.5719 104.206 99.82ZM111.401 97.4216C111.566 97.4216 111.732 97.3389 111.814 97.2562V97.1735C111.649 97.1735 111.649 97.0081 111.566 96.8427C111.153 96.9254 111.401 97.1735 111.401 97.4216ZM133.73 -13.1514C133.813 -13.3995 133.648 -13.6477 133.4 -13.7304C133.482 -13.4822 133.565 -13.3168 133.73 -13.1514ZM108.258 -28.7822C108.093 -28.7822 107.927 -28.6995 107.845 -28.5341C107.927 -28.5341 107.927 -28.4514 108.01 -28.4514C108.093 -28.5341 108.258 -28.6168 108.258 -28.7822ZM79.1469 -33L78.8988 -32.9173L78.9815 -32.6692L79.2297 -32.7519L79.1469 -33ZM44.2466 -25.7222C44.1639 -26.1357 43.4195 -25.9703 43.5022 -25.6395C43.6676 -25.5568 43.9157 -25.6395 44.2466 -25.7222ZM23.3229 -15.4671L23.0748 -15.3844L23.1575 -15.1363L23.4056 -15.219L23.3229 -15.4671ZM22.4131 -14.2266C22.165 -14.1439 21.6688 -14.1439 21.9996 -13.8131C22.165 -13.8131 22.4958 -13.8958 22.4131 -14.2266ZM11.7445 -1.4077C11.2483 -1.325 11.331 -0.994191 11.0002 -1.1596C11.0002 -0.828786 10.9175 -0.497977 10.8348 -0.167168C11.0829 -0.332572 11.331 -0.580678 11.0829 -0.911488C12.158 -0.99419 11.9099 -2.06932 12.8197 -2.31743C12.5716 -2.48283 12.4889 -2.64824 12.4889 -2.81364C11.9099 -2.56554 11.6618 -1.98662 11.7445 -1.4077ZM9.84238 0.990665C9.75968 0.990665 9.75968 1.07337 9.75968 1.07337C9.75968 1.15607 9.75968 1.32147 9.75968 1.40417C9.84238 1.23877 9.84238 1.15607 9.84238 0.990665ZM2.89538 13.9749C2.81268 14.0576 2.64728 14.0576 2.48187 14.1403C2.56457 14.6366 2.48187 14.802 2.81268 15.1328C2.89538 15.0501 2.97809 15.0501 3.06079 14.9674C3.3089 14.7193 3.3916 14.223 3.14349 13.9749C2.81268 13.9749 3.22619 14.5539 2.72998 14.3884C2.81268 14.223 2.81268 14.1403 2.89538 13.9749ZM2.15106 16.456C2.06836 16.6214 1.98566 16.7868 2.06836 17.0349C2.06836 16.8695 2.06836 16.6214 2.15106 16.456ZM0.331612 21.5009C0.166207 21.5836 -0.0819002 21.5836 0.000802154 21.749C0.0835045 21.749 0.166207 21.749 0.166207 21.8317C0.331612 21.749 0.497016 21.6663 0.331612 21.5009ZM0.0835045 47.2213C0.0835045 47.304 0.166207 47.4694 0.331612 47.5521C0.248909 47.3867 0.166207 47.2213 0.0835045 47.2213ZM3.88781 55.905C3.88781 55.9877 3.88781 56.0704 3.88781 56.0704H3.97052C3.88781 55.9877 3.88781 55.9877 3.88781 55.905ZM4.21862 59.2131C4.13592 58.7996 4.38403 58.7169 4.79754 58.7169C4.71484 58.5515 4.71484 58.4688 4.63213 58.3034C4.46673 58.3034 4.38403 58.3034 4.21862 58.3034C4.05322 58.5515 3.63971 59.1304 4.21862 59.2131ZM5.12835 68.0623H5.04565V67.8142H4.79754V68.0623H5.12835ZM4.88024 58.965C4.79754 59.4612 5.21105 59.8747 5.37645 60.4537C5.45916 60.4537 5.45916 60.4537 5.54186 60.4537C5.54186 60.2056 5.54186 59.8747 5.45916 59.6266C5.21105 59.4612 5.04565 59.2131 4.88024 58.965ZM5.21105 60.7018V61.1153H5.62456C5.62456 61.0326 5.62456 60.9499 5.62456 60.8672C5.54186 60.7018 5.37646 60.7018 5.21105 60.7018ZM6.12078 69.4682C6.20348 69.1374 6.12078 68.972 5.87267 68.972C5.78997 69.2201 5.62456 69.6336 6.12078 69.4682ZM6.12078 63.3482C6.69969 63.7617 6.9478 64.5061 7.44401 65.0023C7.44401 64.8369 7.52672 64.6715 7.60942 64.5061C7.60942 64.4234 7.60942 64.258 7.52672 64.0926C7.44401 64.0926 7.44401 63.9272 7.44401 63.8445C7.19591 63.8445 7.19591 64.0099 6.9478 64.0926C6.61699 63.7618 6.53429 63.3482 6.45159 62.9347C6.28618 63.1001 6.20348 63.1828 6.12078 63.3482ZM9.34617 69.0547C9.34617 68.972 9.34617 68.8066 9.51157 68.7239C9.42887 68.7239 9.34617 68.6412 9.34617 68.6412C9.18076 68.0623 9.01536 67.9796 9.18076 67.4834C9.09806 67.4007 9.01536 67.4007 8.93266 67.318C8.76725 67.318 8.68455 67.318 8.51915 67.4007C8.51915 66.6563 7.94023 66.0774 7.69212 65.4985C7.27861 66.0774 8.10563 66.6563 7.85753 66.9871C7.19591 66.9871 7.94023 67.8969 8.10563 68.3104C8.84995 67.8969 8.68455 68.972 9.34617 69.0547ZM20.6764 86.2568C21.4207 85.1817 19.3532 84.6027 19.105 83.4449C18.9396 83.2795 18.5261 83.1968 18.4434 82.9487C18.5261 82.4525 17.8645 82.6179 18.0299 82.039C17.3683 81.8736 16.7894 81.6255 16.7894 80.8811C16.7067 80.7157 16.2105 80.8811 16.2105 80.633C16.0451 79.806 14.9699 79.7233 14.9699 78.7309C13.8948 78.4001 13.6467 77.4076 12.8197 76.9114C12.9024 77.6557 13.1505 78.3174 13.4813 78.979C15.218 79.4752 14.0602 81.7909 16.0451 82.039C15.9624 82.4525 16.3759 82.5352 16.0451 82.7833C17.1202 83.0314 18.0299 83.7757 18.1126 84.4373C19.4359 84.6027 19.684 85.7606 20.6764 86.2568ZM22.5785 87.58C22.4958 88.0762 22.6612 88.3243 23.1575 88.3243C23.0748 87.9935 22.8266 87.7454 22.5785 87.58ZM30.8488 94.6924C31.5104 95.0232 32.4201 96.4292 33.1644 95.7676C32.9163 95.7676 32.7509 95.6849 32.5855 95.5195C32.5855 95.4368 32.6682 95.2713 32.6682 95.1886C32.172 95.0232 31.5104 95.0232 31.4277 94.1962C30.9315 94.527 30.8488 94.527 30.4353 94.1135C30.6007 93.8654 30.4353 93.8654 30.9315 93.8654C30.6007 93.2865 29.6909 93.7 29.1947 93.4519C29.112 93.1211 28.9466 92.7903 28.6158 92.6249C28.3677 92.7076 28.1196 92.9557 28.1196 93.2865C29.112 93.3692 29.6082 93.7827 29.6082 94.6924C30.2699 94.7751 30.4353 94.8578 30.8488 94.6924ZM37.1342 99.1584C37.1342 99.0757 37.1342 98.993 37.2169 98.993C37.2169 98.8275 37.2169 98.6621 36.9688 98.7448C37.0515 98.9102 36.9688 99.1584 37.1342 99.1584ZM73.854 107.594H74.0194C74.0194 107.511 73.9367 107.429 73.9367 107.346H73.854H73.7713L73.854 107.594ZM82.9513 107.18L83.1994 107.098C83.1994 107.015 83.1167 106.932 83.1167 106.85L82.8686 106.932L82.9513 107.18ZM135.054 86.753C135.467 87.0011 135.467 86.1741 135.054 86.3395V86.753ZM137.121 84.1065C137.121 84.1892 137.204 84.2719 137.369 84.2719C137.535 84.2719 137.7 84.1892 137.7 84.0238C137.618 84.0238 137.535 84.0238 137.452 83.9411C137.369 84.0238 137.204 84.0238 137.121 84.1065ZM150.436 67.8142C150.602 67.7315 150.684 67.6488 150.684 67.4834C150.602 67.5661 150.519 67.6488 150.436 67.8142Z" fill="white"/>
</svg>
