<svg width="55" height="59" viewBox="0 0 55 59" fill="none" xmlns="http://www.w3.org/2000/svg">
<path d="M52.7849 29.793C53.1999 29.706 52.8259 29.693 52.4249 29.686C53.0075 29.6247 53.6042 29.5637 54.2149 29.503C40.7539 28.156 34.6279 26.96 31.4359 21.133C31.4679 21.189 31.4989 21.248 31.5359 21.299L31.5469 21.266C31.3659 20.949 31.2329 20.72 31.3469 20.966C31.1969 20.6847 31.0545 20.393 30.9199 20.091C31.0569 20.342 31.1199 20.371 31.1279 20.272C31.1185 20.0658 31.0849 19.8614 31.0279 19.663C31.0149 19.657 31.0029 19.656 30.9619 19.582C30.9409 19.545 30.9109 19.491 30.8689 19.408C30.8269 19.325 30.7829 19.208 30.7149 19.064C30.7579 19.287 31.2149 20.412 30.9589 19.923C30.8679 19.723 30.8069 19.586 30.7589 19.482C30.728 19.4055 30.7013 19.3274 30.6789 19.248C30.6439 19.132 30.6349 19.066 30.5729 18.867C30.6059 19.042 30.4919 18.791 30.3729 18.519C30.3091 18.3516 30.2305 18.1903 30.1379 18.037C29.6245 16.3762 29.2285 14.6813 28.9529 12.965C28.9649 12.996 28.9719 12.991 28.9679 12.925L28.8809 12.45C28.8589 12.006 29.0989 13.337 29.0229 12.731C29.1659 13.364 29.3469 14.069 29.5099 14.964L29.4739 15.144C29.4459 14.8609 29.3947 14.5807 29.3209 14.306C29.3709 14.49 29.4209 14.835 29.4789 15.185C29.5191 15.491 29.5967 15.7909 29.7099 16.078C29.6719 15.868 29.6439 15.657 29.6099 15.447C29.7879 16.075 30.0569 16.837 30.2719 17.613C30.2389 17.245 30.2049 17.438 30.1339 16.868C30.1409 16.993 30.1119 16.931 30.0649 16.781C30.0179 16.631 29.9519 16.391 29.8979 16.159C29.7779 15.696 29.6899 15.266 29.7219 15.664C29.6996 15.3901 29.6619 15.1176 29.6089 14.848C29.5479 14.5342 29.5035 14.2175 29.4759 13.899C29.4589 13.925 29.4759 14.173 29.3689 13.507C29.3569 13.478 29.3359 13.407 29.3219 13.364C29.3219 13.343 29.3219 13.336 29.3159 13.319V13.356C29.3079 13.328 29.3049 13.325 29.3159 13.37C29.3312 13.484 29.3392 13.5989 29.3399 13.714C29.2577 13.4322 29.1909 13.1461 29.1399 12.857C29.0729 12.507 29.0059 12.157 28.9659 11.974C28.9159 11.574 29.0179 12.137 29.0099 11.917L28.8849 11.385C28.9299 11.325 28.8219 10.319 28.9849 11.251L28.8679 10.409C28.8299 9.909 28.7559 9.225 28.6819 8.809C28.6459 8.409 28.5059 7.809 28.5869 8.151L28.4069 6.828L28.4189 6.815C28.2859 5.505 28.0599 4.124 28.0189 2.615C27.9659 2.174 27.9089 1.715 27.8609 0.978L27.8939 0.831C27.8829 0.731 27.8739 0.624 27.8639 0.5H27.2099C27.1549 1.093 27.0489 1.911 27.0699 2.117C26.8959 2.717 26.7959 4.867 26.6699 5.861L26.7259 5.903C26.6529 6.588 26.6009 7.247 26.5259 8.103L26.5859 8.056C26.5449 8.793 26.3249 9.936 26.1649 11.09C26.1741 10.8951 26.2006 10.7013 26.2439 10.511C25.9359 11.876 25.8939 13.43 25.5489 14.655C25.5137 14.9074 25.4595 15.1568 25.3869 15.401C25.3939 15.372 25.3979 15.347 25.4019 15.325C25.3949 15.356 25.3829 15.403 25.3709 15.451L25.2459 15.872C25.2889 15.746 25.3259 15.625 25.3559 15.519C25.3029 15.756 25.2249 16.119 25.1479 16.468L25.0529 16.605C25.0449 16.633 25.0389 16.656 25.0319 16.685C24.9189 17.023 24.9829 16.966 25.0739 16.792C25.0339 16.969 25.0049 17.133 24.9799 17.26C24.8119 17.516 24.7369 18.178 24.5059 18.523C24.481 18.6501 24.4476 18.7754 24.4059 18.898C24.3449 19.072 24.2729 19.286 24.1939 19.498C24.0619 19.856 23.9189 20.204 23.8819 20.367C23.7919 20.547 23.6919 20.721 23.6029 20.896C23.5139 21.071 23.4169 21.241 23.3399 21.407L23.1849 21.525C23.0619 21.794 22.9229 22.057 22.7799 22.32C22.67 22.4609 22.5486 22.5924 22.4169 22.713C22.3629 22.747 22.4039 22.679 22.5389 22.446C22.3298 22.7724 22.0983 23.0838 21.8459 23.378C21.6799 23.558 21.5459 23.727 21.1459 24.138L21.1549 24.072C20.8448 24.3818 20.5063 24.6617 20.1439 24.908C19.9439 25.028 19.5969 25.241 19.1499 25.497C18.6178 25.7909 18.0704 26.0559 17.5099 26.291C16.8563 26.564 16.1887 26.802 15.5099 27.004C14.8229 27.209 14.1389 27.373 13.5319 27.498C13.7839 27.503 13.4989 27.555 13.1419 27.618C12.8608 27.6451 12.5843 27.7076 12.3189 27.804C12.1699 27.804 11.8259 27.854 12.2189 27.752C10.9819 28.024 10.3339 28.052 9.48186 28.267C9.33186 28.261 9.74286 28.183 9.60986 28.186C9.43633 28.2288 9.25984 28.2586 9.08186 28.275C8.94986 28.275 9.26186 28.225 9.45786 28.18C8.17286 28.38 8.05786 28.48 7.97686 28.575C7.48668 28.5999 6.99989 28.6705 6.52286 28.786C6.29086 28.786 5.90486 28.806 6.70886 28.697L5.14686 28.872C4.72635 28.9024 4.30859 28.9633 3.89686 29.054C3.75186 29.054 3.26186 29.117 3.14286 29.138C2.12286 29.238 2.03286 29.245 1.03186 29.352L1.31086 29.335C1.24227 29.3564 1.17248 29.3738 1.10186 29.387L0.893859 29.356V29.419H0.863859L0.00585938 29.519L0.863859 29.595H0.893859V29.659L1.27186 29.639C1.49086 29.666 1.74086 29.699 2.04786 29.727L2.02486 29.733C3.86686 29.985 2.82486 29.786 4.64286 30.054L4.55086 29.993C4.73686 29.903 6.15686 30.24 7.21786 30.337L6.84086 30.259C7.42486 30.296 8.42786 30.616 8.99886 30.718C9.12386 30.746 8.79886 30.704 8.62186 30.685C9.36886 30.826 9.42186 30.82 9.42186 30.794C9.42186 30.768 9.38786 30.725 9.94986 30.805C10.1499 30.874 9.66686 30.848 10.4169 30.981C10.6019 31.026 11.1519 31.09 11.7799 31.181C12.3966 31.2664 13.007 31.3931 13.6069 31.56C13.3939 31.483 13.1799 31.406 13.6969 31.503C13.8969 31.55 14.1189 31.611 14.3619 31.68C14.6049 31.749 14.8619 31.83 15.1079 31.914L15.8379 32.15C16.0679 32.22 16.2779 32.284 16.4559 32.323C16.5469 32.364 16.5809 32.383 16.5819 32.391C16.7279 32.435 16.9129 32.505 17.1199 32.577C17.3269 32.649 17.5449 32.741 17.7599 32.824C17.9749 32.907 18.1779 32.996 18.3489 33.074C18.5199 33.152 18.6619 33.209 18.7489 33.241C18.9566 33.4119 19.1795 33.5636 19.4149 33.694C19.7309 33.885 20.1009 34.124 20.4459 34.367C21.1309 34.857 21.6829 35.39 21.6069 35.44C22.0157 35.8553 22.3905 36.3028 22.7279 36.778L22.6859 36.75C22.9969 37.207 23.1949 37.523 23.3479 37.764C23.4239 37.885 23.4909 37.986 23.5479 38.077C23.6049 38.168 23.6599 38.251 23.7149 38.334C23.8149 38.566 23.7149 38.406 23.6999 38.391C23.7889 38.571 23.8579 38.734 23.9229 38.881C23.9879 39.028 24.0429 39.158 24.0919 39.281C24.1409 39.404 24.1869 39.51 24.2299 39.613C24.2729 39.716 24.3089 39.813 24.3479 39.907C24.5029 40.283 24.6479 40.629 24.8969 41.256L24.8789 41.403C24.9385 41.572 24.9896 41.7439 25.0319 41.918C25.0939 42.168 25.1729 42.483 25.2479 42.837C25.4069 43.544 25.5789 44.4 25.7529 45.161C25.7254 45.1095 25.7059 45.0543 25.6949 44.997C25.8899 45.922 26.0365 46.8566 26.1339 47.797C26.1767 48.467 26.2927 49.1303 26.4799 49.775L26.6679 50.92C26.5119 49.43 26.7859 51.133 26.7499 50.52C26.8329 51.104 26.8559 52.04 26.7669 51.32V51.206C26.6959 51.079 26.7369 51.542 26.7849 52.033C26.8377 52.3612 26.8581 52.6938 26.8459 53.026C27.0219 54.726 27.1529 56.41 27.2769 58.057C27.2575 58.1937 27.2392 58.3303 27.2219 58.467H27.2329C27.2629 58.322 27.2739 58.522 27.3049 58.44V58.503H27.7629V58.467C27.7799 58.302 27.7939 58.138 27.8109 57.973C27.8339 58.267 27.8399 58.411 27.8369 58.467H27.8479C27.8399 58.291 27.8309 58.115 27.8149 57.939C27.8942 57.093 27.9735 56.258 28.0529 55.434L27.9389 55.744L28.0329 54.786C28.0769 54.536 28.1329 54.453 28.0629 55.137C28.124 54.7498 28.1417 54.3571 28.1159 53.966C28.2829 52.63 28.1639 54.497 28.2069 54.086L28.2559 53.528L28.2339 53.653C28.2227 53.2123 28.2444 52.7714 28.2989 52.334C28.3709 51.816 28.3809 52.072 28.4049 51.868C28.4049 51.868 28.4119 51.852 28.4189 51.805C28.4259 51.758 28.4319 51.678 28.4429 51.555L28.5879 50.355L28.4639 50.83C28.4919 50.293 28.6039 49.697 28.4579 50.246C28.5689 49.846 28.7139 48.722 28.8749 47.646C29.0359 46.57 29.2119 45.529 29.2749 45.283C29.3797 44.4829 29.5353 43.6903 29.7409 42.91C29.6719 43.13 29.5629 43.25 29.7649 42.478C29.8059 42.635 29.9159 42.285 30.0559 41.824C30.1804 41.389 30.3379 40.9641 30.5269 40.553C30.4919 40.611 30.5059 40.543 30.5489 40.406C30.5739 40.324 30.6079 40.219 30.6489 40.106C30.6899 39.993 30.7369 39.865 30.7829 39.742C30.9699 39.251 31.1579 38.802 30.9279 39.201C31.2119 38.593 30.9979 39.182 31.2429 38.734C31.5884 37.9343 32.035 37.1821 32.5719 36.496C33.1804 35.7208 33.8835 35.0247 34.6649 34.424C34.6789 34.391 34.3839 34.579 34.7149 34.291C35.0299 34.099 35.3519 33.919 35.6839 33.757C35.8042 33.6757 35.9204 33.5882 36.0319 33.495C36.2226 33.3599 36.4313 33.2522 36.6519 33.175C36.5519 33.209 36.3909 33.261 36.6369 33.131C38.5904 32.2628 40.6371 31.6216 42.7369 31.22C44.8784 30.7836 47.0443 30.4774 49.2229 30.303C48.6339 30.34 49.0229 30.287 49.4689 30.233C49.1769 30.259 49.4689 30.187 49.4079 30.169C50.0139 30.12 50.6189 30.075 51.2259 30.032C51.5929 29.9567 51.9643 29.9046 52.3379 29.876C52.6865 29.8525 53.0331 29.804 53.3749 29.731C53.2629 29.748 53.1489 29.76 53.0599 29.772L52.7849 29.793ZM30.8849 20.022C30.7335 19.68 30.5889 19.324 30.4509 18.954C30.5689 19.205 30.7429 19.627 30.8849 20.022ZM30.3849 18.762H30.3789C30.3639 18.722 30.3499 18.682 30.3359 18.641L30.3849 18.762ZM28.7499 9.762L28.7439 9.74C28.7089 9.272 28.7199 9.438 28.7509 9.763L28.7499 9.762ZM28.1719 5.798C28.3039 6.841 28.1539 6.256 28.1879 6.437C28.2357 7.03209 28.3246 7.62316 28.4539 8.206C28.5644 8.70641 28.6362 9.21457 28.6689 9.726C28.6919 10.377 28.5479 9.768 28.5209 9.916C28.3879 9.069 28.3979 8.607 28.3299 8.031L28.3819 8.744C28.3108 8.36468 28.2604 7.98179 28.2309 7.597C28.2309 7.664 28.2369 7.764 28.2469 7.892C28.1055 6.62533 27.9685 5.27867 27.8359 3.852C27.9339 4.234 28.0559 4.94 28.1729 5.799L28.1719 5.798ZM27.3909 1.66C27.4059 1.693 27.4349 1.599 27.4539 1.525C27.4292 1.81167 27.4049 2.09533 27.3809 2.376C27.3779 2.147 27.3809 1.885 27.3919 1.661L27.3909 1.66ZM27.0659 5.438C27.0725 5.40032 27.0857 5.36409 27.1049 5.331C27.0709 5.68 27.0359 6.023 27.0049 6.361L26.9109 6.374L26.9899 6.505C26.9539 6.84633 26.9179 7.182 26.8819 7.512C26.8119 7.512 26.7569 7.443 26.7439 7.312C26.7589 7.211 26.9899 5.772 27.0659 5.438ZM26.1249 12.232L26.2249 11.302C26.2309 11.552 26.2309 11.995 26.2149 12.489C26.1282 13.0223 26.0379 13.5347 25.9439 14.026C25.9559 13.57 25.9839 13.026 26.0499 12.458L26.1249 12.232ZM23.8789 20.363C23.8738 20.3847 23.8707 20.4068 23.8699 20.429C23.8539 20.436 23.8059 20.526 23.8799 20.364L23.8789 20.363ZM22.7299 22.397C22.7129 22.462 22.7649 22.454 22.8299 22.44C22.6772 22.6513 22.5192 22.856 22.3559 23.054C22.4859 22.838 22.6139 22.619 22.7309 22.398L22.7299 22.397ZM7.70486 28.645C7.86186 28.634 7.73686 28.676 7.52986 28.731C7.61686 28.714 7.69886 28.697 7.76286 28.683C7.95186 28.667 8.02486 28.67 8.02486 28.683L7.37986 28.77L7.52886 28.731L7.20586 28.793L6.93986 28.827C6.72786 28.835 6.54686 28.839 6.41786 28.846C6.84986 28.784 7.27886 28.714 7.70586 28.647L7.70486 28.645ZM28.3689 51.945C28.3989 51.516 28.4019 51.637 28.4049 51.757L28.3689 51.945Z" fill="#1D1D1B"/>
</svg>
